<?xml version="1.0" encoding="UTF-8"?>
<svg width="1427.2" height="1427.2" enable-background="new" viewBox="0 0 1427.1897 666.77393" xmlns="http://www.w3.org/2000/svg" xmlns:xlink="http://www.w3.org/1999/xlink">
 <defs>
  <filter id="ai">
   <feGaussianBlur stdDeviation="1.00331"/>
   <feBlend in2="BackgroundImage" mode="screen"/>
  </filter>
  <filter id="ah" x="-.1935" y="-.16826" width="1.387" height="1.3365">
   <feGaussianBlur stdDeviation="1.13736"/>
   <feBlend in2="BackgroundImage" mode="darken"/>
  </filter>
  <filter id="ag" x="-.03884" y="-.13175" width="1.0777" height="1.2635">
   <feGaussianBlur stdDeviation="20.41083"/>
   <feBlend in2="BackgroundImage" mode="lighten"/>
  </filter>
  <linearGradient id="d">
   <stop stop-color="#9893aa" offset="0"/>
   <stop stop-color="#9e99b0" offset=".49644"/>
   <stop stop-color="#bab9ce" offset=".71916"/>
   <stop stop-color="#caccdd" offset=".86466"/>
   <stop stop-color="#cacddc" offset="1"/>
  </linearGradient>
  <linearGradient id="af" x1="-71.324" x2="244.39" gradientUnits="userSpaceOnUse">
   <stop stop-color="#42346b" offset="0"/>
   <stop stop-color="#624d9e" offset="1"/>
  </linearGradient>
  <linearGradient id="ae" x1="310.92" x2="410.94" y1="762.05" y2="757.15" gradientUnits="userSpaceOnUse">
   <stop stop-color="#d48f0e" offset="0"/>
   <stop stop-color="#e1b400" offset=".72334"/>
   <stop stop-color="#f4d04d" offset="1"/>
  </linearGradient>
  <linearGradient id="ad" x1="401.3" x2="412.94" y1="739.66" y2="757.15" gradientUnits="userSpaceOnUse">
   <stop stop-color="#d48f0e" offset="0"/>
   <stop stop-color="#e1b400" offset="0"/>
   <stop stop-color="#f4d04d" offset="1"/>
  </linearGradient>
  <linearGradient id="ac" x1="-165.27" x2="-116.03" y1="-645.56" y2="-651.69" gradientUnits="userSpaceOnUse">
   <stop stop-color="#312344" offset="0"/>
   <stop stop-color="#251d50" offset=".13598"/>
   <stop stop-color="#413d7b" offset=".5619"/>
   <stop stop-color="#736e98" offset="1"/>
  </linearGradient>
  <linearGradient id="ab" x1="-172.14" x2="18.507" y1="-628.05" y2="-659.97" gradientUnits="userSpaceOnUse">
   <stop stop-color="#c5cbe8" offset="0"/>
   <stop stop-color="#5a5ea7" offset=".03053"/>
   <stop stop-color="#484d8d" offset=".15154"/>
   <stop stop-color="#2f2d6e" offset=".29443"/>
   <stop stop-color="#050c29" offset=".57744"/>
   <stop stop-color="#080b1a" offset="1"/>
  </linearGradient>
  <linearGradient id="aa" x1="-174.11" x2="312.2" y1="-577.79" y2="-570.25" gradientUnits="userSpaceOnUse">
   <stop stop-color="#100c22" offset="0"/>
   <stop stop-color="#170e3b" offset="1"/>
  </linearGradient>
  <linearGradient id="z" x1="-13.343" x2="398.98" gradientUnits="userSpaceOnUse">
   <stop stop-color="#0e0910" offset="0"/>
   <stop stop-color="#100813" offset=".5576"/>
   <stop stop-color="#291c2d" offset="1"/>
  </linearGradient>
  <linearGradient id="u" x1="-67.82" x2="481.8" gradientUnits="userSpaceOnUse">
   <stop stop-color="#080b1c" offset="0"/>
   <stop stop-color="#050b2d" offset=".35027"/>
   <stop stop-color="#061550" offset=".55263"/>
   <stop stop-color="#090f29" offset="1"/>
  </linearGradient>
  <linearGradient id="x" x1="494.29" x2="496.76" y1="-926.56" y2="-912.39" gradientUnits="userSpaceOnUse">
   <stop stop-color="#2d2e40" offset="0"/>
   <stop offset="1"/>
  </linearGradient>
  <linearGradient id="w" x1="568.57" x2="620.94" gradientUnits="userSpaceOnUse">
   <stop stop-color="#444053" offset="0"/>
   <stop stop-color="#191826" offset="1"/>
  </linearGradient>
  <linearGradient id="v" x1="1154" x2="1091.8" gradientUnits="userSpaceOnUse">
   <stop stop-color="#41345c" offset="0"/>
   <stop stop-color="#131838" offset="1"/>
  </linearGradient>
  <linearGradient id="s" x1="776.74" x2="796.18" y1="645.68" y2="615.6" gradientUnits="userSpaceOnUse">
   <stop stop-color="#6e659e" offset="0"/>
   <stop stop-color="#8180b9" offset=".65031"/>
   <stop stop-color="#6c629d" offset="1"/>
  </linearGradient>
  <linearGradient id="r" x1="859.9" x2="865.82" y1="-944.89" y2="-925.36" gradientUnits="userSpaceOnUse">
   <stop stop-color="#b2b6db" offset="0"/>
   <stop stop-color="#8283bc" offset="1"/>
  </linearGradient>
  <linearGradient id="q" x1="817.12" x2="827.26" y1="-893.46" y2="-886.42" gradientUnits="userSpaceOnUse">
   <stop stop-color="#212248" offset="0"/>
   <stop stop-color="#433863" offset=".21381"/>
   <stop stop-color="#8e82a6" offset="1"/>
  </linearGradient>
  <linearGradient id="p" x1="820.83" x2="821.59" y1="-978.61" y2="-907.07" gradientUnits="userSpaceOnUse">
   <stop stop-color="#5f57c7" offset="0"/>
   <stop stop-color="#2c2584" offset=".09195"/>
   <stop stop-color="#0a0d1e" offset=".26694"/>
   <stop stop-color="#0a0c21" offset=".58915"/>
   <stop stop-color="#11131f" offset="1"/>
  </linearGradient>
  <linearGradient id="t" x1="932.73" x2="926.54" y1="-973.94" y2="-967.72" gradientUnits="userSpaceOnUse">
   <stop stop-color="#e7e2fd" offset="0"/>
   <stop stop-color="#b6bde3" offset=".28239"/>
   <stop stop-color="#9dadda" offset="1"/>
  </linearGradient>
  <linearGradient id="o" x1="459.21" x2="514.62" gradientUnits="userSpaceOnUse">
   <stop stop-color="#b4a5aa" offset="0"/>
   <stop stop-color="#867b84" offset=".45559"/>
   <stop stop-color="#675563" offset=".53431"/>
   <stop stop-color="#443749" offset=".7612"/>
   <stop stop-color="#978b99" offset=".83066"/>
   <stop stop-color="#776a71" offset="1"/>
  </linearGradient>
  <linearGradient id="n" x1="441.91" x2="474.18" y1="-644.7" y2="-644.34" gradientUnits="userSpaceOnUse">
   <stop stop-color="#736470" offset="0"/>
   <stop stop-color="#a79aa0" offset=".59437"/>
   <stop stop-color="#958890" offset="1"/>
  </linearGradient>
  <linearGradient id="y" x1="213.72" x2="177.74" y1="-622.91" y2="-613.74" gradientUnits="userSpaceOnUse">
   <stop stop-color="#fff" offset="0"/>
   <stop stop-color="#fff" stop-opacity="0" offset="1"/>
  </linearGradient>
  <radialGradient id="i" cx="42.641" cy="602.15" r="141.71" gradientTransform="matrix(1.4138 -.28783 .09791 .48094 -65.715 -1112)" gradientUnits="userSpaceOnUse">
   <stop stop-color="#090a1c" offset="0"/>
   <stop stop-color="#090b1a" offset=".42698"/>
   <stop stop-color="#0f1233" offset=".57013"/>
   <stop stop-color="#545385" offset=".69319"/>
   <stop stop-color="#a2add6" offset=".76605"/>
   <stop stop-color="#090a1c" stop-opacity="0" offset="1"/>
  </radialGradient>
  <radialGradient id="h" cx="106.11" cy="760.44" r="317.74" gradientTransform="matrix(1.6684 -.62602 .17374 .46304 -197.4 -1014.4)" gradientUnits="userSpaceOnUse">
   <stop stop-color="#090b1a" offset="0"/>
   <stop stop-color="#2b2759" offset=".48703"/>
   <stop stop-color="#444075" offset=".59658"/>
   <stop stop-color="#4a477d" offset=".69101"/>
   <stop stop-color="#686cac" offset=".84494"/>
   <stop stop-color="#7d84bb" offset="1"/>
  </radialGradient>
  <radialGradient id="m" cx="433.39" cy="519.72" r="141.15" gradientTransform="matrix(2.8231 -1.7525 .25708 .41412 -944.15 -370.9)" gradientUnits="userSpaceOnUse">
   <stop stop-color="#10101c" offset="0"/>
   <stop stop-color="#42447b" offset=".45282"/>
   <stop stop-color="#4f4f7a" offset=".54586"/>
   <stop stop-color="#6a6f9b" offset=".73091"/>
   <stop stop-color="#ced2e3" offset=".95732"/>
   <stop stop-color="#eceffb" offset="1"/>
  </radialGradient>
  <radialGradient id="l" cx="-35.972" cy="746.81" r="44.993" gradientTransform="matrix(1.8746 -1.5664 .77627 .92904 -588.47 -27.563)" gradientUnits="userSpaceOnUse">
   <stop stop-color="#f1eea8" offset="0"/>
   <stop stop-color="#c3cde6" offset=".95659"/>
   <stop stop-color="#fcfaff" offset="1"/>
  </radialGradient>
  <radialGradient id="g" cx="836.11" cy="544.45" r="33.997" gradientTransform="matrix(1.546 -.28126 .14594 .8022 -470.34 -1158.1)" gradientUnits="userSpaceOnUse">
   <stop stop-color="#191c26" offset="0"/>
   <stop stop-color="#14135f" offset="1"/>
  </radialGradient>
  <radialGradient id="c" cx="517.47" cy="861.49" r="107.41" gradientTransform="matrix(1 0 0 1.3378 0 -291.04)" gradientUnits="userSpaceOnUse">
   <stop stop-color="#110a12" offset="0"/>
   <stop stop-color="#291d2b" offset=".66995"/>
   <stop stop-color="#1b0f1b" offset=".77833"/>
   <stop stop-color="#1a0e1a" offset=".8867"/>
   <stop stop-color="#0c050d" offset="1"/>
  </radialGradient>
  <radialGradient id="b" cx="522.32" cy="861.49" r="108.16" gradientTransform="matrix(1 0 0 1.3355 0 -289.02)" gradientUnits="userSpaceOnUse">
   <stop stop-color="#110a12" offset="0"/>
   <stop stop-color="#463545" offset=".70253"/>
   <stop stop-color="#57485b" offset=".77833"/>
   <stop stop-color="#2b1d2e" offset=".92859"/>
   <stop stop-color="#2e1f32" offset="1"/>
  </radialGradient>
  <radialGradient id="a" cx="522.32" cy="861.49" r="108.16" gradientTransform="matrix(1 0 0 1.3355 0 -289.02)" gradientUnits="userSpaceOnUse">
   <stop offset="0"/>
   <stop stop-color="#2e1f32" offset="1"/>
  </radialGradient>
  <radialGradient id="f" cx="983.61" cy="801.23" r="28.485" gradientTransform="matrix(1.1529 .06565 -.20222 3.5509 127.42 -3676.3)" gradientUnits="userSpaceOnUse">
   <stop stop-color="#1c1714" offset="0"/>
   <stop offset=".76527"/>
   <stop stop-color="#594e5e" offset=".88494"/>
   <stop stop-color="#68626e" offset="1"/>
  </radialGradient>
  <radialGradient id="e" cx="1055.1" cy="736.14" r="18.6" gradientTransform="matrix(1.1561 2.7829e-6 -7.4491e-6 3.0945 -126.56 -1543.1)" gradientUnits="userSpaceOnUse">
   <stop stop-color="#bdbfd6" offset="0"/>
   <stop stop-color="#d0cedc" offset=".87527"/>
   <stop stop-color="#9693a0" offset=".92702"/>
   <stop stop-color="#bec0d6" offset="1"/>
  </radialGradient>
  <radialGradient id="k" cx="866.89" cy="675.34" r="44.154" gradientTransform="matrix(1.1351 -.51133 .65759 1.4598 -579 14.051)" gradientUnits="userSpaceOnUse" xlink:href="#d"/>
  <radialGradient id="j" cx="866.89" cy="675.34" r="44.154" gradientTransform="matrix(1.0454 -.51133 .60559 1.4598 -662.65 23.028)" gradientUnits="userSpaceOnUse" xlink:href="#d"/>
 </defs>
 <g transform="translate(186.14 1045.4)">
  <path d="m1006.5-671.08s18.952-138.65 20.948-142.64 54.862-95.76 54.862-95.76l52.867-16.957 50.872 63.84-8.9775 72.817-12.967 44.887-160.6 77.805 2.9925-3.99z"/>
  <path d="m627.75-590.12-239.81 80.408-42.32-158 102.98-156.58 163.64-32.445 55.016 138.25-12.696 91.694-26.803 36.678z"/>
  <path transform="matrix(1.0466 0 0 1.071 8.5678 62.866)" d="m-59.85-635.17c-35.91 79.8-139.65 111.72-15.96 131.67s231.42 47.88 355.11 35.91 275.31-23.94 299.25-39.9 71.82-31.92 147.63-59.85 179.55-39.9 247.38-59.85 135.66 0 151.62-27.93-139.65-227.43-339.15-171.57-837.9 191.52-845.88 191.52z" filter="url(#ag)"/>
  <path d="m566.65-1041.3c-53.468 0.596-69.011 5.2809-96.467 12.722 0 0-71.372 37.636-100.79 56.268-17.773 11.256-55.913 39.357-87.202 64.195l-47.87 12.6s-114.58 2.209-140.29 3.7879c-24.672 1.5157-103.62 18.742-123.95 26s-68.781 33.424-100.71 61.003c-15.967 13.79-38.84 40.089-43.29 57.961-4.5096 18.114-12.658 97.911-0.27848 138.16 0 0 53.854 25.023 114.69 41.939s301.91 59.5 301.91 59.5 143.7-6e-3 155.31-5.8125-0.014-14.499 1.4375-27.562 0.25979-50.025 3.9326-90.924c3.6444-40.583 17.86-89.069 42.536-125.36s60.365-61.12 99.541-60.032c52.255 1.4515 84.396 50.332 88.974 72.586 7.0447 34.252 9.4853 74.102 6.5823 92.972s-16.566 58.505-16.566 58.505l7.25 4.3438s47.909-7.2659 92.906-21.781 181.45-47.881 206.12-53.688 98.697-24.694 107.41-30.5 5.8125-14.5 5.8124-14.5 2.6388-36.45 6.9934-64.03c3.2981-20.888 7.4449-42.474 17.749-67.14s22.669-53.381 55.924-53.944c33.939 2.3148 41.279 51.06 42.811 71.382 1.5624 20.724-9.6616 77.176-9.6616 77.176s16.661-10.745 22.467-18.003 17.304-23.206 17.561-51.409c0.1189-13.063 0.7979-79.312-2.1052-98.182s-20.325-49.033-31.938-56.29-127.15-8.7499-127.15-8.7499c-33.435 0.31424-52.737 15.296-95.588 1.487 0 0-23.449-5.8262-32.158-7.2777s-7.248 1.957-20.312-6.7522-28.956-8.5759-46.374-5.6728-15.031 19.667-15.031 19.667l-43.442 1.008 26.394-47.555s-8.0535-11.218-24.02-15.572-59.936-6.8914-124.76-6.6348c-1.633 0.01-84.936 3.5732-94.358 4.1056z" fill="#4a477d"/>
  <path transform="matrix(.5343 0 0 .77728 820.93 -1437.8)" d="m624.89 861.49c0 79.323-48.121 143.7-107.41 143.7s-107.41-64.378-107.41-143.7 48.121-143.7 107.41-143.7 107.41 64.378 107.41 143.7z" fill="url(#c)"/>
  <path transform="matrix(.5343 0 0 .75618 834.26 -1419.6)" d="m624.89 861.49c0 79.323-48.121 143.7-107.41 143.7s-107.41-64.378-107.41-143.7 48.121-143.7 107.41-143.7 107.41 64.378 107.41 143.7z" fill="url(#b)" stroke="url(#a)" stroke-width="1.5"/>
  <path transform="matrix(.4956 .07195 -.04841 .75463 894.2 -1453.6)" d="m609.64 861.12c0 65.502-40.48 118.66-90.358 118.66s-90.358-53.161-90.358-118.66 40.48-118.66 90.358-118.66 90.358 53.161 90.358 118.66z" fill="#fcfbfd"/>
  <path d="m895.6-983.62s5.8061-1.4515 14.878 0 43.909 16.33 45.723 18.87-15.241 11.612-15.241 11.612-11.249-2.5402-13.064 2.1773-9.0721 14.152-9.0721 14.152l-30.482 7.9834 7.2577-54.795z" fill="url(#g)"/>
  <path d="m766.77-977.81 73.302-1.0886-13.064 71.125-97.253 12.701 37.014-82.737z" fill="url(#p)"/>
  <path d="m823.02-941.89s-10.887 7.2577-19.596 17.418-18.144 24.313-18.144 24.313h31.208l6.5319-41.732z" fill="#918ea5"/>
  <path d="m726.5-835.57 210.19-39.499h80.408l50.784 40.91s-12.696 35.267-16.928 59.248-5.6427 67.712-8.464 73.355-2.8214 11.285-18.339 14.107-146.71 25.392-152.35 25.392-238.4 77.587-244.05 77.587-1.4107-9.8747 5.6427-31.035 16.928-94.515 7.0534-118.5 7.0534-71.944 7.0534-71.944l78.998-29.624z" fill="#6e6288"/>
  <g transform="translate(0,-1500)">
   <path d="m813.5 570.18s9.933-42.394 13.246-49.683c3.3853-7.4488 6.1227-12.988 17.677-16.162s24.858-4.688 36.412-1.514 17.06 8.3357 20.248 15.389c7.8627 21.043 13.659 37.707 17.519 59.804 0.79686 5.9954-106.7-6.0699-106.7-6.0699l1.5937-1.7633z" fill="#bac5d5"/>
   <path d="m898.74 585.53s-0.99749-53.865-2.9925-60.349c-1.995-6.4837-6.9825-18.952-15.461-22.942s-22.942-4.4887-27.431-3.4912-17.456 2.9925-21.446 6.9825-16.459 45.386-17.456 51.371-5.985 17.955-1.995 21.945 86.782 8.4787 86.782 6.4837z" fill="url(#k)"/>
  </g>
  <path d="m574.14-917.39-20.455 1.4107 1.4107-26.803 90.988-22.571-10.58 57.132-61.364-9.1694z" fill="#09080b"/>
  <path d="m428.46-913.59c1.995-0.49874 60.847-15.96 85.286-20.449s47.381-7.98 47.381-7.98l0.49875 28.429-134.66 2.4938 1.4962-2.4938z" fill="url(#x)"/>
  <path d="m570.57-923.94 0.49875-17.456 56.359-7.98-1.4962 4.4887s-45.885 4.4887-46.882 6.4837 38.653 8.9775 38.653 8.9775l-49.127 11.97 1.995-6.4837z" fill="url(#w)"/>
  <path d="m305.41-913.87s18.339-6.348 51.49-4.9374 59.248-4.232 71.239-2.8213 21.16 2.8213 70.534-7.0534 237.7-49.374 237.7-49.374l50.079-52.9s-16.223-10.58-56.427-11.285-159.41 3.5267-184.09 4.2321-74.766 10.58-74.766 10.58l-77.587 46.552-97.336 69.123 12.696-2.116h-3.5267z"/>
  <g transform="translate(0,-1500)">
   <path d="m620.43 577.32s9.1694-43.731 13.049-50.432 7.406-11.991 17.633-15.165 18.691-4.9374 28.919-1.7633 15.87 7.0534 18.691 14.107 4.9374 5.9954 5.29 12.343 6.7007 47.61 7.406 53.606-92.399-10.933-92.399-10.933l1.4107-1.7633z" fill="#bac5d5"/>
   <path d="m698.25 594.51s-0.91862-53.865-2.7559-60.349-6.4304-18.952-14.239-22.942-21.128-4.4887-25.262-3.4912-16.076 2.9925-19.75 6.9825-15.157 45.386-16.076 51.371-5.5117 17.955-1.8372 21.945 79.92 8.4787 79.92 6.4837z" fill="url(#j)"/>
  </g>
  <path d="m296.24-907.52s1e-5 -8.464 33.856-12.696 77.587-2.116 97.336-2.116 119.2 3.5267 127.67 3.5267 21.865-0.70533 42.32-6.348 24.687-11.991 45.847-11.991 40.204 2.8214 50.079 9.8747 10.58 10.58 5.6427 21.16-8.464 15.517-8.464 15.517l-143.89-4.232-201.73-7.7587-48.668-4.9374z" fill="#2d2e40"/>
  <path d="m-144.58-705.1s0.10908-2.0572-7.5888-8.2156-14.992-6.6671-16.531-11.799-4.6188-11.803-4.6188-14.883 14.883-27.713 17.962-31.818 7.6979-9.2375 7.6979-9.2375l38.49-10.777 16.935-24.12 30.792 14.883s73.387-59.017 105.2-66.202 134.97-24.12 134.97-24.12l-24.633 9.2375 77.492-7.9545 69.538-6.6715 28.226-0.2566 5.132 6.1583h51.576l17.449 0.51319 58.642-7.4256-214.83 50.804-175.64 68.948-97.616 41.129-33.748 37.979-84.907-6.1713z" fill="url(#h)"/>
  <path d="m-174.05-739.26s-1.4515 18.507-0.72577 33.385 3.6288 34.474 3.6288 34.474 31.571 10.524 33.748 10.524 30.845-7.6206 30.845-7.6206l-38.829-37.377-11.249-12.338-9.0721-6.169-5.4432-9.7979-1.4515-9.0721-1.4515 3.9917z" fill="#090912"/>
  <path d="m197.13-638.83s53.081 0.35615 70.529 1.3825 73.703-17.489 91.152-22.621 55.439-26.517 55.439-26.517 18.888-62.295 27.099-75.638 31.853-47.528 72.874-54.912c25.66-4.6188 45.363-4.6334 59.531 0.51319 12.251 4.4503 54.399 36.437 57.478 51.833s0 15.396 0 15.396l66.715-9.2375-14.369-44.135-26.686 4.1056 56.451-19.501-12.317-12.317s-66.715-3.0792-79.032 1.0264-26.686 12.317-26.686 12.317-8.2111-20.528-53.372-19.501-66.715 7.1847-83.138 25.66-26.686 34.897-26.686 34.897-68.768 19.501-79.032 26.686-35.924 26.686-35.924 26.686l-55.425 8.2111-23.607 21.554-48.24-7.1847-10.39 8.0025 48.366 6.367-30.73 46.928z" fill="#060a36"/>
  <path d="m-65.825-698.51 39.9-38.404s70.324-41.396 158.6-74.812 138.65-50.872 202.49-64.339 129.18-18.454 129.18-18.454l17.456 4.4887s-91.77 10.474-165.09 31.92-184.04 58.354-209.47 71.321l-49.875 25.436s23.94 2.4937 47.88-2.9925 75.311-14.962 73.815-14.464-18.952 5.4862-33.915 14.962 20.947 0 20.947 0-16.957 10.474-22.444 15.96-4.9875 11.97 1.4962 12.967 122.19-7.4812 122.19-7.4812l-62.599 47.254 32.674 5.1145-9.975 8.9775-295.26-11.471 1.995-5.985z" fill="url(#u)"/>
  <path d="m196.36-696.92s1.5341-6.9032 8.4373-7.6703 13.039-1.5341 22.244-7.6703 35.283-29.147 35.283-29.147 51.391-6.9032 67.498-14.574 15.889-8.0894 21.221-12.017c10.98-8.0875 17.897-14.062 29.403-30.937s13.039-29.914 13.039-29.914 35.283-19.176 69.8-28.38 46.022-20.71 102.78-23.011 192.52 0 192.52 0l-87.441-9.9714 55.993-3.0681 75.169-9.9714 114.29-27.613s17.642-7.6703 26.846-8.4373-6.1362 14.574-6.1362 14.574 17.642-2.3011 26.079-6.9032 26.079-9.2043 39.885-13.806 43.721-15.341 60.595-16.108 29.914-4.6022 37.584-1.5341 12.149 11.567 13.683 23.073 6.1776 4.0202-0.767 13.225c-6.0057 7.9599 19.079 21.874 19.079 21.874l-42.734 10.095-27.613-6.9032-24.774 11.841-16.645-3.4033-20.207 9.7246 7.5469 9.8655-281.88 57.88-11.122-2.6846-8.8208-5.7527-78.62-1.534-24.161 10.738s-28.549-27.781-82.839-11.505c-53.938 16.17-67.184 32.077-81.442 54.336-19.991 4.3937-53.939 17.382-53.939 17.382s-25.695 12.656-35.667 17.258-21.477 20.71-21.477 20.71l-47.556 8.4373-34.516 22.244-50.624-10.738z" fill="#b0b3d4"/>
  <path d="m-154.94-675.49 83.979 26.027 10.603-50.842c0.25484-0.44598-47.47-17.652-62.039-15.32-11.9 1.9048-22.78 5.5784-22.78 7.5932l-9.7627 32.542z" fill="#4b3e69"/>
  <path d="m116.97-594.7 81.892-43.959-88.544-8.9292 6.6512 52.889z" fill="#1e1448"/>
  <path d="m398.75-552.33-110.14-6.8387-212.25 9.0245-132.94-18.51s131.25 41.34 215.42 52.63 158.32 12.961 183.98 9.882 53.562-4.7476 53.562-4.7476 1.8631-1.9239 2.3763-12.188 0-30.278 0-29.252z" fill="url(#z)"/>
  <path d="m-56.584-568.65c-0.36288-0.18144-80.106-33.821-103.68-42.634 3.6263-10.546-10.87-44.551-11.232-63.516s-2.422-19.522-2.422-19.522l30.574 24.422 32.844 17.449 19.822 38.256 34.78 21.513-0.68994 24.032z" fill="#080c16"/>
  <path d="m-60.368-700.3-10.956 50.73c79.724 4.8662 160.87 6.8856 242.01 8.931l64-4.339 9.7112-41.752s-54.344-5.3091-76.965-5.9763-39.417 0.44321-59.118 0c-56.268-1.2658-113.89-9.0074-168.68-7.5932z" fill="url(#af)"/>
  <g transform="translate(-1.1048 -1468)">
   <path d="m309.5 762.43s30.873-8.0538 48.706-13.423 28.955-7.6703 37.584-8.8208 15.149-0.38351 15.149-0.38351-0.95879 16.108-8.8208 20.134-39.885 8.6291-51.391 10.163-36.817 5.1774-39.31 4.6022-8.2456-3.2599-6.5197-6.9032 4.7939-5.3692 4.6022-5.3692z" fill="url(#ae)" stroke="url(#ad)" stroke-width="2"/>
   <path transform="matrix(1.2182 0 0 1.2182 -97.892 -92.592)" d="m403.82 708.2-11.087-9.4936-6.3336 13.15 2.6782-14.348-14.555 1.0901 13.765-4.8548-8.2217-12.06 11.087 9.4936 6.3336-13.15-2.6782 14.348 14.555-1.0901-13.765 4.8548 8.2217 12.06z" fill="#fbfbfb" filter="url(#ai)" opacity=".76974"/>
  </g>
  <path d="m176.56-638.07s-6.0547 30.664-5.2734 34.57 1.1719 9.5703 4.8828 9.9609 30.469 1.5625 40.43 1.7578 46.875-1.3672 57.812-2.1484 17.773-1.1719 21.094-3.5156 7.0312-5.2734 4.2969-10.742-11.719-20.117-11.719-20.117-3.5156-5.8594-9.9609-7.6172-29.883-4.1016-35.156-3.9062-67.383 1.7578-67.383 1.7578h0.97656z"/>
  <path d="m230.47-634.75s-5.0781 1.9531-5.0781 8.5938-0.78125 12.891 0.78125 15.625 7.8125 5.8594 12.891 6.6406 50 2.3438 50 2.3438l1.1719-18.359s-7.4219-10.156-12.109-12.891-4.6875-3.125-14.062-3.125-33.203 1.9531-33.594 1.1719z" fill="#73667e"/>
  <path d="m181.05-633.38s-8.7891 25.586-7.8125 31.445-1.5625 9.375 6.6406 9.7656 96.289-1.1719 101.95-2.1484 12.305-0.97656 13.672-4.4922 2.3438-6.0547-0.19532-12.305-15.234-20.312-18.359-22.07c-3.125-1.7578-22.266-3.9062-33.008-3.125s-62.695 2.5391-62.891 2.9297z" fill="#fff" opacity=".45223"/>
  <path d="m231.47-634.09c-0.78125 0.19532-5.4688 5.875-5.4688 5.875l-0.78125 8.1875 28.531-1.5625-0.40625 3.7188-4.0938 6.25-6.25 3.9062-0.59375-2.1562-8.7812 2.1562-0.375 2.1562s13.266 2.9062 14.438 2.9062 32.438 0.21875 32.438 0.21875l1.75-6.6562 3.125 7.2188 0.78125-8 2.5312 6.4375 1.9688-16.594-2.1562 2.9375-5.2812 0.1875 5.2812-5.6562-6.6562-6.0625-0.1875 8.7812-3.3125 3.9062-2.5312 10.562-20.531 0.59375 8.2188-7.4375 0.96875 4.6875 9.7812-9.5625 2.9062-2.9375 0.59375-3.9062-4.875-0.375-1.375 4.6875-3.5 0.96875-2.3438 4.2812-1.9688 2.1562 2.5312-9.75 5.0938-1.1875-0.78125-3.125-36.125 0.59375-4.9062-1.1875 2.3438-7.2188zm24.406 11.844h4.875l0.96875 5.4688-10.344 10.938-4.3125 0.59375 7.0312-6.8438 1.7812-10.156z" fill="#f2f2f2"/>
  <path d="m-149.87-632.71s-20.684-2.9031-21.773 0.36288-2.1773 1.8144 0.72576 6.169 1.8144 10.524 31.571 19.959 69.789 21.113 69.789 21.113l128.35 9.3695 7.9834-8.3463-132.09-10.887-84.552-37.74z" fill="url(#ab)"/>
  <path d="m-161.62-610.6c283.93 96.685 69.273 23.946 106.6 36.562l248.34 6.3528s106.22-3.9295 120.59 4.2816 10.792 16.246 10.792 16.246-103.67-2.0528-137.54 0-175.51-6.1583-191.93-8.2111-76.979-9.2375-76.979-9.2375-79.902-44.567-79.864-45.994z" fill="url(#aa)"/>
  <path d="m213.01-633.14h-28.919l-6.348 38.794 35.972-7.7587-0.70533-31.035z" fill="url(#y)" opacity=".45223"/>
  <path transform="matrix(1.0473 0 0 1.0252 -44.071 -1528.3)" d="m624.89 861.49c0 79.323-48.121 143.7-107.41 143.7s-107.41-64.378-107.41-143.7 48.121-143.7 107.41-143.7 107.41 64.378 107.41 143.7z" fill="url(#c)"/>
  <path transform="matrix(1.0473 0 0 .99742 -17.943 -1504.3)" d="m624.89 861.49c0 79.323-48.121 143.7-107.41 143.7s-107.41-64.378-107.41-143.7 48.121-143.7 107.41-143.7 107.41 64.378 107.41 143.7z" fill="url(#b)" stroke="url(#a)" stroke-width="1.5"/>
  <path transform="matrix(.97143 .09491 -.0949 .99538 99.551 -1549.1)" d="m609.64 861.12c0 65.502-40.48 118.66-90.358 118.66s-90.358-53.161-90.358-118.66 40.48-118.66 90.358-118.66 90.358 53.161 90.358 118.66z" fill="#fcfbfd"/>
  <path d="m241.2-651.89 118.03-8.2111 55.425-26.686s-13.343 47.214-13.343 69.794-3.0792 66.715-3.0792 66.715l-43.108 2.0527-23.607 6.1584-17.449-13.343s-32.844-5.1319-45.161-6.1583-52.346 1.0264-60.557-1.0264-49.267-2.0528-49.267-2.0528l-169.35-5.132-53.372-3.0791-97.507-36.95-8.7336-14.506 99.056 39.14 168.28 8.8134 81.13 3.5033 122.06-21.552s0.76145-12.691-5.3969-21.928-10.965-20.121-24.285-20.914c-58.929-3.5066-34.901-2.3206-34.901-2.3206l5.132-12.317z" fill="#453c73"/>
  <path d="m-138.87-670.59 23.684 23.377-0.63301 5.0805-40.643 13.064 44.998 26.128 52.255 15.241 110.97 8.9407 76.28 4.1231 18.87 1.4515-1.4515-9.435s-7.9834-4.7175-11.612-6.169-12.593 2.0067-8.9646-3.0737 8.2389-40.109 8.2389-40.109l-13.466-9.9769-190.11-10.207-68.409-18.434z"/>
  <path d="m-171.97-675.04 10.264 45.161 7.6912 2.3906 15.186-7.3599 22.709-7.2993c0.60454-1.6267 0.63324-3.182 0.63302-5.1716l-17.873-17.573-24.754-3.4769-13.856-6.6715z" fill="url(#ac)"/>
  <path d="m260.19-639.6-54.433-3.266h-35.2l-8.0825 16.779-14.779 14.792-10.161 5.0804-5.1762 17.121 58.883 3.9266 17.781-1.5876-34.111-3.8556-4.1538-4.9974 3.1259 0.82025-1.5122-7.798-5.0804 2.1773 4.3546-33.022 7.9834 1.0886 1.4515-3.9917 31.413-4.7209 47.695 1.455z" fill="#170e48"/>
  <path d="m170.19-634.89-5.0804 36.288 2.5402 5.8061 1.8144-5.0804 2.5402-3.266 3.9917-30.119-5.8061-3.6288zm-11.612-5.8061s-8.3463 2.1773-15.604 5.8061-11.975 5.0804-11.975 5.0804c-2.3402 12.821-5.1039 29.545-8.9301 39.526 0.81539 5.4001 14.946 1.2867 23.127 7.9385l31.889 1.5249 64.23-3.266 23.587-2.9031-20.321-1.8144 48.264-4.3546s7.6206-2.5402 7.6206-5.4432-1.8144 2.5402-6.8948 3.9917-55.158 4.7175-55.158 4.7175-44.544-1.4515-48.899-0.72577-18.598-5.4432-18.598-5.4432l-1.4515 3.9917s5.8061 3.9917 17.781 3.9917 11.931 2.1942 11.931 2.1942l-66.001-4.3715 7.6206-15.967 14.152-6.8948 3.6288-5.4433 11.249-21.773-11.249-0.36288z" fill="#362c69"/>
  <path d="m172.04-598.6-2.2073 3.266 6.9898 4.7175s70.828 1.1392 71.554 0.0506l49.479-4.0423 2.7995-8.9252s-2.0237 6.5664-11.957 8.018-101.76 2.6036-101.76 2.6036l-0.0526 1.8e-4c-3.2674-0.16514-12.724-0.10046-14.848-5.6883v-4e-5z" fill="#cbc3f4"/>
  <path d="m238.05-585.53 11.249-2.1773-10.887-1.4515 18.507-2.5402 38.466-2.1773 4.7175-7.9834 2.9031 3.266-3.266 5.8061s37.014-3.6288 47.175-3.6288 31.934-1.4515 31.934-1.4515 0 4.3546-2.9031 5.0804-48.264 8.3463-48.264 8.3463l-89.632 14.515-4.3546-2.1773s-79.834-0.72576-86.366-0.72576-29.756-4.7175-29.756-4.7175l9.0721-7.2577 47.175 2.9031 64.23-3.6288z" fill="#030e2c"/>
  <path d="m173.46-583.36s24.047 1.5731 76.931-3.266c55.884-5.0804 100.52-5.8061 100.52-5.8061l-44.635 11.612-71.125 7.2577-67.496 1.0886 46.086-5.4432 44.998-3.6288s-72.577 1.4515-75.48 1.0886-9.7979-2.9031-9.7979-2.9031z" fill="#9498d9"/>
  <path d="m392.64-552.15-52.981 21.047-74.754 1.4515 52.981-7.9834 74.754-14.515z" fill="#100813"/>
  <path d="m117.21-878.38c-23.95 8.7092-129.91 46.449-148.06 60.239s-57.336 43.546-57.336 43.546l3.6288-26.128 25.402-51.529s21.054-11.819 62.416-26.853c37.391-13.591 146.41-16.94 191.97-14.852-49.52 9.8855-62.493 11.231-78.024 15.578z" fill="url(#i)"/>
  <path d="m401.49-902.99 43.89-41.396s22.444-19.95 27.93-24.439 29.925-25.436 33.915-31.421c3.99-5.985 11.97-11.471 21.446-15.461s27.93-19.451 27.93-19.451-29.925 0.4988-44.389 2.4937c-14.464 1.9951-44.887 6.4838-49.875 8.9775s-51.371 29.925-51.371 29.925-55.361 29.925-65.336 39.401-71.321 54.364-71.321 54.364 26.434-1.995 54.364-1.4962 72.817-0.49875 72.817-1.4962z" fill="url(#m)" opacity=".49682"/>
  <path d="m160.6-760.35s-13.965 8.9775-15.96 13.965-0.49875 10.972 6.4837 10.474 63.341-3.4912 83.291-4.9875 87.281-11.97 99.251-17.955 42.892-35.411 48.379-44.887 8.9775-15.96 9.4762-19.451-5.475-9.7324-13.965-9.975c-17.456-0.49875-54.862 5.4862-77.805 13.466-14.45 5.0262-76.308 25.436-97.256 36.409s-42.394 23.441-41.895 22.942z" fill="#4d436b"/>
  <path d="m170.07-758.36s5.985-5.4862 29.426-14.962 61.845-27.431 79.8-32.419 39.526-12.718 59.476-17.706 41.862-5.0138 45.012-4.4887c5.2369 0.8728 6.359 4.7381 3.3666 10.224s-10.1 19.451-25.062 33.416c-9.2958 8.6761-28.714 22.601-41.104 25.905-22.444 5.985-64.631 14.494-95.553 16.489-12.453 0.8034-62.842 1.995-67.83 1.995s-7.1976-6.554-2.4938-9.975c5.4862-3.99 14.962-8.9775 14.962-8.4787z" fill="#0d1023"/>
  <path d="m221.94-780.3-11.471 7.4812 24.937-0.49874 0.9975 10.972s-24.937 3.99-29.925 4.9875-34.414 9.975-36.409 9.975c-1.995 0-6.9825 1.4962-4.9875-0.9975 1.995-2.4937 16.957-12.469 16.957-12.469s15.461-9.4762 21.945-11.97 16.459-6.9825 17.955-7.4812z" fill="#7b7ab7"/>
  <path d="m265.58-794.52s6.7331-5.2368 11.721-6.9825 8.2294-4.2394 7.98-0.49875-10.972 20.449-10.972 20.449l-8.7281-12.967z" fill="#6d6faa"/>
  <path d="m302.49-796.76s9.975-6.7331 15.461-8.9775 11.222-7.2318 12.469-3.99 1.2469 12.469-2.2444 15.461-13.965 13.466-15.96 14.962-2.4937 0-3.2419-2.4938-5.2369-10.723-6.2344-11.97 1.2469-3.2419 1.2469-3.2419l-1.4962 0.24938z" fill="#6d6faa"/>
  <path transform="translate(-3.2419 -1499.5)" d="m268.08 722.56c0 7.5022-3.7985 13.591-8.4787 13.591s-8.4787-6.0887-8.4787-13.591 3.7985-13.591 8.4787-13.591 8.4787 6.0887 8.4787 13.591z" fill="#2d1924"/>
  <path transform="translate(33.167 -1501.2)" d="m268.08 722.56c0 7.5022-3.7985 13.591-8.4787 13.591s-8.4787-6.0887-8.4787-13.591 3.7985-13.591 8.4787-13.591 8.4787 6.0887 8.4787 13.591z" fill="#2d1924"/>
  <path transform="translate(-2.2444 -1501.5)" d="m266.33 725.18c0 3.7167-2.0668 6.7331-4.6134 6.7331s-4.6134-3.0164-4.6134-6.7331 2.0668-6.7331 4.6134-6.7331 4.6134 3.0164 4.6134 6.7331z" fill="#4f3f5b"/>
  <path transform="translate(33.915 -1503.7)" d="m266.33 725.18c0 3.7167-2.0668 6.7331-4.6134 6.7331s-4.6134-3.0164-4.6134-6.7331 2.0668-6.7331 4.6134-6.7331 4.6134 3.0164 4.6134 6.7331z" fill="#4f3f5b"/>
  <path d="m271.88-774.69s-3.7406 3.4912-2.7431 5.7356 2.7431 1.995 5.7356 2.2444 4.9875 0.9975 4.9875 0.9975v2.7431s-17.706 3.4912-17.955 2.4937 2.4938-7.4812 4.7381-10.474 18.204-20.449 18.204-20.449-0.49874 4.2394-0.49874 9.7256 2.2444 12.219 3.2419 13.466-1.4962 1.7456-2.7431-0.49875-1.995-17.456-1.995-17.456l-10.972 11.471z" fill="#8982b1"/>
  <path d="m259.41-792.15h5.9226s4.4264 4.364 4.6758 6.6084 2.1197 3.5536-0.56109 6.8578-4.8628 6.4214-4.8628 6.4214 0.93516-5.4239 0.18703-8.6034-4.4264-8.7904-4.7381-9.4762-0.37407-1.6833-0.62344-1.808z" fill="#fefaf9"/>
  <path d="m295.88-793.27 5.4239 0.18703s4.4264 4.3017 4.8628 6.7954 0.37406 4.364-0.37406 4.8004-4.4887 0.87281-4.4887 0.87281-0.24938-4.2394-1.7456-6.4214-3.6159-4.4264-3.6159-4.4264l-0.0623-1.808z" fill="#fefaf9"/>
  <path d="m354.08-815.47s-12.343 5.819-14.283 10.404-10.051 9.522-8.6404 13.401 0.17633 6.7007 4.9374 6.7007 15.694-2.8214 16.399-0.35267 0.70533 8.993 2.9977 7.7587 11.638-8.6404 11.991-9.522l1.4107-3.5267s6.7007-4.232 8.1114-8.2877 3.5267-7.406 1.587-10.227-5.4664-7.2297-11.991-8.1114-13.93 2.645-13.93 2.645l1.4107-0.88167z" fill="#f1f86e" fill-opacity=".39867"/>
  <path d="m386.17-827.46-59.954 31.916s-25.745 20.278-37.559 28.919-18.339 13.578-20.102 14.812-16.399 6.348-16.399 6.348 39.298-7.3707 48.139-8.8167c20.638-3.3757 35.443-11.638 40.557-14.988s20.984-12.696 24.334-16.575 15.165-18.339 17.457-23.805 6.1717-10.756 5.4664-14.107-1.7633-3.3503-1.9397-3.703z" fill="#fefaf9" fill-opacity=".6113"/>
  <path d="m-147.38-784.04s-3.2419 2.2444 0 7.4812 9.4762 12.967 14.464 13.716 11.97 1.7456 16.459-1.7456 39.401-37.406 45.137-44.139 14.713-21.696 14.962-29.925 0.49875-10.224-2.4937-11.222-3.2419-0.24937-3.2419-0.24937" fill="none" stroke="#000" stroke-linejoin="round" stroke-width="2"/>
  <g transform="translate(0,-1500)">
   <path d="m-92.031 681.94c-4.6802 0-8.4688 6.0916-8.4688 13.594 0 5.828 2.314 10.789 5.5312 12.719l0.09375-0.0937c0.85634-0.85634 1.6978-1.919 2.6562-2.6562 0.55553-0.42733 1.4801-1.2019 2.2812-1.75 1.134-0.77592 2.177-1.4991 3.3438-2.2812 0.76094-0.51011 1.747-1.1284 2.625-1.75 0.26446-1.3145 0.4375-2.7326 0.4375-4.1875 0-7.5022-3.8198-13.594-8.5-13.594z" fill="#2d1924"/>
   <path d="m-88.906 689.44c-2.5466 0-4.625 3.0021-4.625 6.7188s2.0784 6.75 4.625 6.75c0.07395 0 0.14565 5e-3 0.21875 0 0.6896-0.47516 1.3617-0.94674 2.0938-1.4375l1.0312-0.6875c0.77732-1.2053 1.2812-2.8404 1.2812-4.625 0-3.7167-2.0784-6.7188-4.625-6.7188z" fill="#4f3f5b"/>
   <path d="m-87.90625,682.625c.24937.12468.31328,1.12671.625,1.8125s3.97063,6.28924 4.71875,9.46875c.32089,1.36376.34185,3.13428.25,4.71875 .3023-.21196.58996-.43371.84375-.6875l3.875-3.875c.35934-.35934.75774-.73127 1.15625-1.09375 .0443-1.34035-.72271-2.37943-.875-3.75-.24937-2.24437-4.6875-6.59374-4.6875-6.59375h-5.90625z" fill="#fefaf9"/>
   <path d="m-102.8 705.69s-8.1114 0.35267-8.993 2.9977-6.7007 5.4664 0.17634 4.5847 10.051 1.058 10.051 1.058 1.058-3.3503 1.058-5.819-2.116-2.645-2.2924-2.8214z" fill="#eae57f"/>
   <path d="m-73.002 661.96s10.756 0.52901 7.935 4.0557-6.877 8.8167-12.343 10.404-19.397 4.232-23.629 8.6404-17.986 14.812-23.1 18.868-12.167 6.877-13.401 10.933-1.2343 7.5824 1.058 10.227 6.7007 8.464 1.9397 5.819-10.404-7.2297-9.6984-10.756 5.6427-13.754 8.2877-14.283 14.283-7.935 16.575-9.6984 5.4664-5.819 11.462-11.109 11.991-13.401 16.575-16.399 14.283-6.1717 14.283-6.1717l4.0557-0.52901z" fill="#f1eea8"/>
   <path d="m-65.596 651.2s1.587-1.7633 2.9977-1.058 4.232 0.88167 4.232 3.8794 1.058 11.462-0.35267 13.754-8.993 11.285-10.756 15.341-1.9397 4.0557-1.9397 4.0557-5.6427 7.0534-8.2877 10.58-13.93 11.814-20.984 19.749-10.227 12.52-16.223 15.87-8.2877 4.232-12.343 2.2923-13.049-2.645-14.988-7.935-4.761-7.5824-3.3504-9.8747 9.1694-11.638 14.283-17.104 14.636-14.812 22.747-20.807 25.568-17.986 32.445-21.689 12.167-7.0534 12.52-7.0534z" fill="url(#l)" opacity=".39809"/>
  </g>
  <path d="m419.95-903.49s177.55 0.9975 208.48 0.9975 65.482-1.7633 65.482-1.7633l70.177-107.96s-36.907-6.9825-87.78-6.9825-221.44 2.9925-221.44 2.9925l28.454-13.486s139.08-10.636 176.98-10.636 111.53 5.411 130.2 10.57c-7.4562 16.665-8.4536 15.547-19.426 35.497s-66.832 100.75-66.832 100.75-16.957 2.9925-88.777 1.995-196.51-9.975-195.51-11.97z" fill-opacity=".70432"/>
  <path d="m291.76-907.8c33.007-30.506 67.161-57.412 96.94-75.607 14.381-8.7874 47.808-33.339 89.149-43.702 26.356-6.6064 79.005-3.8506 86.24-9.2908 0 0 63.33-2.828 101.24-3.9078s71.741 2.6904 98.716 6.2915-2.9503 15.571-2.9503 15.571l-57.612 67.507s-59.102 56.619-72.066 60.391-324.18-11.689-339.66-17.253z" fill="#fff" fill-opacity=".12957"/>
  <path d="m790.68-1028.8-15.517-4.9373s-12.696 7.0534-14.812 13.401-7.0534 10.58-11.285 16.928-39.499 37.383-44.436 44.436-23.981 29.624-29.624 34.561-46.552 33.856-46.552 33.856l45.142 0.70533 31.74-4.232 85.346-134.72z" fill="#dfe2ed" fill-opacity=".70432"/>
  <path d="m666.54-655.01s204.55-61.364 227.82-68.418 70.534-20.455 2.116-11.285-177.74 24.687-177.74 24.687l4.232 32.445-56.427 22.571z" fill="#050a30"/>
  <path d="m753.3-823.58s73.355-15.517 108.62-23.981 140.36-28.213 140.36-28.213l-6.348-9.1694 29.624-11.991 4.9374 4.9374 34.562-11.285s9.1693 0.70533 16.223 2.8213 11.285 5.6427 11.285 5.6427 4.9374-7.7587 13.401-10.58 18.339-2.8214 18.339-2.8214-12.696-14.107-11.285-18.339 2.116-17.633-0.7054-22.571-2.8213-9.8747-8.464-11.285-17.633-4.232-26.098-3.5267 36.678-2.8214 39.499-1.4107 24.687-1.4107 40.91 7.0534 30.33 21.16 30.33 21.16 13.401 28.213 11.991 60.659-0.7053 32.445-0.7053 32.445l-1.4107 21.16s-7.7587-7.0534-11.991-7.0534h-16.928s-3.7747-19.912-4.9374-23.981c-2.8213-9.8747-9.8747-26.097-9.8747-26.097s-11.991-16.223-25.392-16.928-26.098 0-38.088 12.696-23.981 46.552-26.803 55.016 5.6427 6.348-19.044 11.285-81.114 8.464-127.67 14.812-143.18 22.571-159.41 19.044-33.856-0.70534-19.044-9.1694 64.186-25.392 99.452-36.678 124.84-35.267 124.84-35.267l-210.19 41.615z" fill="#050a30"/>
  <path d="m1109.5-892c14.107-1.7634 14.107-4.232 25.039 1.7633s22.218 19.397 25.392 31.74 6.6903 27.838 6.3481 50.079c-0.3527 22.923 0.4421 10.042 1.1756 23.372 0.5945 10.639 0.2042 39.769 4.4362 29.189s1.0889-14.826 1.4415-29.286 1.7633-36.325 0-45.847-2.9461-23.874-13.401-39.146c-3.041-4.442-8.1114-16.928-22.218-22.218s-19.749-8.1114-30.329-0.70534 3.174 1.4107 2.116 1.058z" fill="#4a4172"/>
  <path d="m1085.7-895.08c15.461-9.4762 16.957-11.97 31.421-11.97s28.927 6.9825 32.917 12.469 9.4762 15.461 8.4787 19.95-3.4912 1.995-3.4912 1.995-6.4837-12.967-17.955-17.955-17.456-8.9775-28.927-2.9925-17.456 10.972-17.456 10.972l-4.9875-12.469z" fill="url(#v)"/>
  <g transform="translate(-42.585 -1499.5)">
   <path d="m1215.6 582.26s-10.227 4.9374-11.991 10.58 1.058 9.8747 2.8213 9.1694 15.517-0.35267 17.633-2.116 4.9374-8.464 2.4687-10.933-5.6427-6.7007-10.933-6.7007z" fill="#960406"/>
   <path d="m1205.6 589.53s-2.4687 3.174-2.4687 5.29 0.8487 0 2.2924-1.4107c1.128-1.1023 2.645-2.9095 2.645-2.9095l-2.4687-0.96984z" fill="#ececec"/>
   <path transform="matrix(1.2091 0 0 1.3221 -203.99 -192.49)" d="m1184 593.28c0 4.4775-3.1599 8.1114-7.0533 8.1114s-7.0534-3.6339-7.0534-8.1114 3.1599-8.1114 7.0534-8.1114 7.0533 3.6339 7.0533 8.1114z" fill="#980207" filter="url(#ah)"/>
  </g>
  <path d="m808.84-1021.5-8.9918-6.7853-41.518 68.727-6.6715 58.248 15.139-1.5396 11.547-66.715 30.495-51.934z" fill="#9b93a7"/>
  <path d="m790.49-1029.8-87.756 135.74 26.998-4.4137 42.026-71.796 32.04-55.031-13.309-4.4994z" fill="#afadc3"/>
  <path d="m770.14-965.98-45.931 71.334 36.437-3.0792 9.4941-68.255z" fill="#958fa9" stroke="#000" stroke-width=".2"/>
  <path d="m816.49-909.23-48.989 2.5402-0.72577 3.9917-63.142 7.2577-34.111 4.3546 56.61-1.8144 88.544-11.975 1.8144-4.3546z" fill="#7d6e91" stroke="#000" stroke-linejoin="round" stroke-width=".2"/>
  <path d="m727.22-896.89 2.1773 3.6288 4.3546 9.435 2.9031 4.3546 16.693 59.513-5.0804 23.95 2.9031 15.967-5.0804 77.657 11.612 22.499-2.1773 30.482 241.68-67.496 47.175-12.338" fill="none" stroke="#000" stroke-linejoin="round" stroke-width=".8"/>
  <path d="m996.48-716.9s26.128-55.158 32.659-95.075" fill="none" stroke="#000" stroke-linejoin="round" stroke-width=".8"/>
  <path d="m1027-806.17s7.9835-26.853 4.3546-55.158" fill="none" stroke="#b9b9b9" stroke-linejoin="round" stroke-width=".8"/>
  <path d="m1024.8-940.8 19.596-5.4432s2.1773-0.72577 4.3546 0 6.1691 5.4432 7.6206 11.612 5.4433 21.41 5.0804 25.039-8.7092 7.6206-11.975 8.3463-11.612 0.72577-11.612 0.72577-13.064-35.2-14.152-37.377 2.5402-4.3546 1.0886-2.9031z" fill="none" stroke="#050505" stroke-linejoin="round" stroke-width=".8"/>
  <path d="m1019.7-939.79s12.83 28.739 13.086 31.818 1.283 7.6979-0.5132 9.2375-8.4677 0.76979-8.4677 0.76979-3.3358-15.909-6.1583-22.067-7.1848-16.422-7.1848-16.422l9.2375-3.3358z" fill="#8b8dc2"/>
  <path d="m1010-937.48 3.0792 7.4413s6.6715-6.1583 6.6715-7.6979-0.2566-2.566-0.2566-2.566l-9.4941 2.8226z" fill="#21213b"/>
  <path d="m999.7-945.44c0-1.2029 8.4678 4.2963 9.7507 7.4413" fill="none" stroke="#050505" stroke-width=".8"/>
  <path d="m1009.2-935.69s-3.3357 0-2.3093 3.0792 4.6187 8.7243 6.1583 14.113 4.1056 15.139 5.6451 17.192 3.5924 4.1056 4.6188 4.1056" fill="none" stroke="#050505" stroke-linejoin="round" stroke-width=".8"/>
  <path d="m965.32-950.06s-4.6188 2.3094 7.4413 2.8226 27.456 1.283 27.456 1.283" fill="none" stroke="#f1f1f1" stroke-linejoin="round" stroke-width=".8"/>
  <g transform="translate(0,-1500)">
   <path d="m794.86 607.96s-4.4814 2.5569-5.7734 4.3624-6.6716 3.2072-6.6716 3.2072-4.4905 6.1583-4.8754 10.007-4.1548 16.828-1.9245 18.988 3.4409 4.1514 3.4409 4.1514l26.687-25.685s-7.1624-4.1264-9.3434-7.0773-2.1811-7.4413-2.1811-7.4413l0.64149-0.51319z" fill="url(#s)"/>
   <path d="m784.42 627.57s3.849-1.0264 7.9545-2.566l10.264-3.849s6.1583 4.3622 10.777 3.849 7.1847-1.5396 7.1847-1.5396 2.3094 4.3622-0.25659 8.2111-5.132 11.034-7.9545 13.343-6.6715 3.3358-12.06 4.1056-15.909 0.51319-18.218 0.2566-5.132-0.76979-4.1056-3.5924 6.9281-17.962 6.4149-18.218z" fill="#021046"/>
   <path d="m789.04 612.3c0.0146 0.0244-2.6701 1.9548-1.4113 6.4149 1.8143 6.4283 6.1143 5.8036 5.9351 6.1619" fill="none" stroke="#000" stroke-linejoin="round" stroke-width=".8"/>
  </g>
  <path d="m910.11-928.82s40.881-12.673 49.171-17.781c6.1914-3.8151 26.587-9.2129 34.519-18.336 5.1205-5.8894-30.535-11.034-30.535-11.034l-23.607-1.0264s26.173 2.566 31.818 4.3622 11.29 2.3094 10.007 6.1583c-1.7194 5.1582-27.456 16.679-27.456 16.679l-49.267 17.192 5.3494 3.7855z" fill="#756f8b"/>
  <path d="m794.29-890.44s0.95906 5.0689 3.0118 7.3783 4.3637 7.5057 14.114 8.0188 11.204-3.0382 11.204-3.0382c1.871-2.1242 12.37-18.042 16.989-22.404s4.6735-6.6275 11.858-6.8841 10.722 0.72577 26.888-0.044 23.35-1.283 28.996-4.1056 12.573-9.2375 11.803-18.732-4.1056-14.883-11.29-17.962-20.271-3.3358-26.686-3.3358-25.66-1.283-35.154 2.8226-19.245 12.317-22.581 18.988-13.6 20.528-17.962 25.66-10.777 11.29-10.52 11.034l-0.67174 2.6041z" fill="#0f0f31"/>
  <path d="m795.08-889.63 14.515-15.241 7.9834 2.5402s-1.8144-1.8144-5.0804 2.1773-11.612 14.152-11.975 16.33-0.36289 2.9031-0.36289 2.9031l-5.0804-8.7092z" fill="#888bc2"/>
  <path d="m810.86-907.23s0 2.1773 2.5402 2.3588 4.3546 0.18144 4.3546 0.18144 8.1649-9.7979 12.519-12.338 7.9834-5.0804 17.237-6.5319 24.132-1.9959 32.841-3.0845 24.313-5.4433 24.313-5.4433l12.157 0.18144s-0.72576-7.2577-5.9876-10.886-8.1649-5.6247-11.068-5.0804-22.317-0.54433-28.305 0.90721-25.402 3.4474-29.756 7.802-17.418 13.971-19.596 17.418-11.431 14.697-11.249 14.515z" fill="url(#r)"/>
  <path d="m822.11-900.15-15.423 20.684s2.5402 3.0845 6.169 2.7216 9.0721-1.4515 9.0721-1.4515l14.334-22.136-14.152 0.18145z" fill="url(#q)"/>
  <path d="m826.5-903.87s4.3622-11.29 8.4677-13.343 8.7243-5.3886 25.147-5.6452 33.358-1.0264 33.358-1.0264l5.9017 0.5132 15.396-0.76979s-1.0264 8.7243-3.5924 10.007-14.883 1.5396-27.456 1.5396-16.166 0.76979-28.996 0.76979-14.113 4.6188-15.396 7.1847-6.6715 2.3094-6.6715 2.3094l-6.1583-1.5396z" fill="#433863"/>
  <path d="m918.46-979.63s9.435 16.693 15.967 18.507 11.249-0.36288 10.161-3.9917-10.886-8.3463-14.515-10.161-11.975-4.3546-11.612-4.3546z" fill="url(#t)"/>
  <path d="m707.7-895.66 85.19-134.97s-18.475-8.2111-25.66-7.6979-83.651-5.6452-93.401-5.6452-162.17 6.6716-162.17 6.6716" fill="none" stroke="#000" stroke-width="1.5"/>
  <path d="m449.31-573.05 1.8144-1.633c1.4535 1.078 18.562 23.699 23.95 27.579 10.28 7.4025 12.128 9.4795 27.579 12.882 15.816 3.4832 21.592 0.54432 21.592 0.54432s2.8086-1.5121 1.9959-6.8948c-0.82254-5.4478-14.878-69.311-14.878-69.311s2.1773 5.8061 5.8061 6.8948c4.8785 1.4636 8.1649-0.18144 9.6164-4.536s1.9959-7.802 1.9959-7.802l0.72576-2.5402s9.435 76.568 10.524 78.02 4.3352-0.11091 7.6206-1.8144c4.8989-2.5402 25.039-20.321 32.66-33.022s15.423-31.027 15.423-35.2c0-2.5402-1.2701-6.169-1.2701-6.169l13.245-4.1732c0.44498-0.22249-7.5791 31.04-21.954 52.437-12.206 18.168-36.521 40.768-61.872 42.276-25.06 1.4909-42.324-9.9164-51.245-16.855-8.3585-6.5014-23.837-28.866-23.328-30.682z"/>
  <path d="m536.52-650.67 21.773 7.0762s-6.7133 0-7.9834 1.8144-4.1732 5.0804-4.1732 7.4391 0.9072 4.8989-1.8144 6.8948-11.249 2.3588-11.249 2.3588l73.302 4.1732 2.5402-12.157 0.90721-4.1732-1.2701-17.418-7.2577 0.54432-1.0886 13.064s3.9917 0.90721 3.9917 2.5402-0.54433 3.266-0.54433 3.266l-67.133-17.056v1.633z"/>
  <path d="m490.44-620.37-1.0886 6.8948-13.064 7.0762-10.161 8.8906-3.8103 6.3505-3.8103 5.8061 48.445-31.571 5.0804 2.9031 1.4515-2.1773-7.4391-3.4474-5.6247 5.0804-6.169-0.36289-3.8103-5.4432z"/>
  <path d="m480.64-654.66-1.9959 17.963 11.975-5.2618 4.536 0.90721-44.635 44.09 3.9917-0.18144 42.639-42.457 1.633-3.6288-7.6206-2.1773-10.524-9.2535z"/>
  <path d="m502.23-647.59c-0.18144 0.90721-2.1773 9.9793-2.1773 9.9793l14.878-1.0886-4.3546-4.8989 9.9793-0.36289 0.36288 3.8103 2.1773-0.54433-0.54432-4.8989 6.7133-2.3588 0.54433 3.0845 5.4432-2.7216-3.0845-7.4391h-5.6247l-6.8948-6.7134-6.8948 0.18144-0.18144 7.2577-5.2618 6.5319-5.0804 0.18144z"/>
  <path d="m521.65-744.3-0.36288 4.3546-3.4474 2.1773s16.148 6.8948 16.33 6.169 3.4474-3.9917 3.4474-3.9917l-1.4515-8.1649s-4.536-1.4515-8.1649-1.4515-6.3505-0.36288-6.3505-0.36288v1.2701z" fill="#1f1f1f"/>
  <path d="m472.84-719.62 3.9917 6.8948s2.1773-2.3588 12.882-4.536 8.1649-5.9876 21.229-1.8144 19.596 5.8061 19.596 5.8061l6.5319-2.9031 1.9959-14.334-5.8061-1.8144s-7.2486-3.792-13.78-4.3364-16.702 0.88897-16.702 0.88897v-1.8144s8.8633-0.6635 10.496-3.5666-1.5213-3.2971-1.5213-3.2971-15.688 4.142-22.402 9.2224-16.693 15.604-16.511 15.604z" fill="#0f0e10"/>
  <path d="m477.27-713.09s21.298 30.535 22.581 30.022 18.09-4.1056 18.09-4.1056-0.2566 10.264 0.64149 9.3658 6.1583-12.06 6.1583-12.06l7.313-22.324s-5.7734-4.747-17.32-7.5696-18.988-2.3094-26.43 0.89809-11.29 6.1583-11.034 5.7734z" fill="#786d7c"/>
  <path d="m511.67-744.48s3.0845 1.633-2.3587 4.1732-7.2577 3.0845-7.2577 3.0845l0.54432 1.633s10.524-1.633 15.785-0.18145 15.604 4.8989 15.604 4.8989l-0.54432-2.7216-13.852-5.0272 2.9653-1.8676 0.18145-5.0804-11.068 1.0886z" fill="#866d80"/>
  <path d="m559.57-714.72-20.321 47.901 4.3546 13.064-3.9917 1.8144 0.36289 0.36288 42.457 9.0721-1.0886-2.1773-2.1773-1.4515 0.72576-2.9031 1.8144-0.36289-1.0886-2.9031s-2.1773-25.039-7.9834-38.466-11.975-23.225-13.064-23.95z" fill="#1f2521"/>
  <path d="m536.7-620.01 43.183 1.8144-0.36288 3.266h-2.1773l-0.72577 3.6288 2.5402 1.0886s-12.701 25.402-16.33 31.934-11.612 15.967-15.604 18.507-7.2577 2.5402-7.2577 2.5402l-7.9834-59.513 4.7175-3.266z" fill="#120e11"/>
  <path d="m453.97-576.1 36.651-27.216 17.056 12.338 2.5402-3.9917 8.7092 38.829-4.3546 9.7979s-21.41 1.8144-29.756-0.72577-20.684-11.612-24.313-15.967-7.2577-11.612-6.5319-13.064z" fill="#120e11"/>
  <path d="m457.23-699.48 4.3546-0.72577 24.676 41.732-7.2577 0.72577-2.9031 26.128-25.583 20.866-8.8906 5.6247s-3.6288-28.305-0.72576-47.901 16.33-46.086 16.33-46.449z" fill="#120e11"/>
  <path d="m456.7-695.1s-10.352 19.745-12.542 32.062c-2.168 12.192-4.9194 22.225-3.1232 34.285s4.4062 21.754 4.4062 21.754 5.92-4.0175 12.848-8.6363 8.675-8.1306 8.675-8.1306-1.2776-15.922-0.34465-25.447c0.91053-9.2958 7.5605-21.129 7.5605-21.129l-11.578-20.652-5.9017-4.1056z" fill="url(#n)"/>
  <path d="m466.24-690.89-5.132 1.5396"/>
  <path d="m466.49-691.41-5.6451 1.283 15.652 22.837s-6.6715 3.0792-8.4677 16.679-0.25659 24.377 0 24.89 7.1847-5.9017 7.1847-5.9017l2.0528-3.0792 2.3094-23.864 3.3358 0.5132 3.5924-1.283-20.015-32.075z" fill="#48383f"/>
  <path d="m456.49-693.71-2.3094 36.95"/>
  <path d="m485.74-597.75-5.6452 3.0792s4.3622 5.6451 13.086 6.6715 14.113-0.76979 14.113-0.76979l-1.5396-3.849-2.8226-2.0528s-3.5924 3.849-17.192-3.0792z" fill="#554446"/>
  <path d="m459.82-581.33 20.528-15.139c-1.1337 0 5.5761 7.1847 12.83 8.2111 3.9442 0.55809 14.113-1.283 14.113-1.283l7.1847 24.12c2.0622 0.51555-18.206 4.0711-27.713 3.0792-12.711-1.3263-31.157-16.814-26.943-18.988z" fill="url(#o)"/>
  <path transform="translate(9.5257 -1523.4)" d="m447.62 851.78c0 0.9014-0.67061 1.633-1.4969 1.633s-1.4969-0.73158-1.4969-1.633 0.67061-1.633 1.4969-1.633 1.4969 0.73158 1.4969 1.633z" fill="#291f2a"/>
  <path transform="translate(10.524 -1522.8)" d="m446.34672,851.32471c0,.70109-.24385,1.27009-.54432,1.27009s-.54433-.569-.54433-1.27009 .24386-1.2701.54433-1.2701 .54432.56901.54432,1.2701z" fill="#e9e2ea"/>
  <path transform="translate(6.9855 -1530.7)" d="m447.62 851.78c0 0.9014-0.67061 1.633-1.4969 1.633s-1.4969-0.73158-1.4969-1.633 0.67061-1.633 1.4969-1.633 1.4969 0.73158 1.4969 1.633z" fill="#291f2a"/>
  <path transform="translate(7.9834 -1530)" d="m446.34672,851.32471c0,.70109-.24385,1.27009-.54432,1.27009s-.54433-.569-.54433-1.27009 .24386-1.2701.54433-1.2701 .54432.56901.54432,1.2701z" fill="#e9e2ea"/>
  <path transform="translate(15.332 -1540.8)" d="m447.62 851.78c0 0.9014-0.67061 1.633-1.4969 1.633s-1.4969-0.73158-1.4969-1.633 0.67061-1.633 1.4969-1.633 1.4969 0.73158 1.4969 1.633z" fill="#291f2a"/>
  <path transform="translate(16.33 -1540.2)" d="m446.34672,851.32471c0,.70109-.24385,1.27009-.54432,1.27009s-.54433-.569-.54433-1.27009 .24386-1.2701.54433-1.2701 .54432.56901.54432,1.2701z" fill="#e9e2ea"/>
  <path transform="translate(16.058 -1532.3)" d="m447.62 851.78c0 0.9014-0.67061 1.633-1.4969 1.633s-1.4969-0.73158-1.4969-1.633 0.67061-1.633 1.4969-1.633 1.4969 0.73158 1.4969 1.633z" fill="#291f2a"/>
  <path transform="translate(17.056 -1531.7)" d="m446.34672,851.32471c0,.70109-.24385,1.27009-.54432,1.27009s-.54433-.569-.54433-1.27009 .24386-1.2701.54433-1.2701 .54432.56901.54432,1.2701z" fill="#e9e2ea"/>
  <path transform="translate(17.509 -1526.1)" d="m447.62 851.78c0 0.9014-0.67061 1.633-1.4969 1.633s-1.4969-0.73158-1.4969-1.633 0.67061-1.633 1.4969-1.633 1.4969 0.73158 1.4969 1.633z" fill="#291f2a"/>
  <path transform="translate(18.507 -1525.5)" d="m446.34672,851.32471c0,.70109-.24385,1.27009-.54432,1.27009s-.54433-.569-.54433-1.27009 .24386-1.2701.54433-1.2701 .54432.56901.54432,1.2701z" fill="#e9e2ea"/>
  <path transform="translate(43.092 -1556.6)" d="m447.62 851.78c0 0.9014-0.67061 1.633-1.4969 1.633s-1.4969-0.73158-1.4969-1.633 0.67061-1.633 1.4969-1.633 1.4969 0.73158 1.4969 1.633z" fill="#291f2a"/>
  <path transform="translate(44.09 -1556)" d="m446.34672,851.32471c0,.70109-.24385,1.27009-.54432,1.27009s-.54433-.569-.54433-1.27009 .24386-1.2701.54433-1.2701 .54432.56901.54432,1.2701z" fill="#e9e2ea"/>
  <path transform="translate(45.088 -1564)" d="m447.62 851.78c0 0.9014-0.67061 1.633-1.4969 1.633s-1.4969-0.73158-1.4969-1.633 0.67061-1.633 1.4969-1.633 1.4969 0.73158 1.4969 1.633z" fill="#291f2a"/>
  <path transform="translate(46.086 -1563.4)" d="m446.34672,851.32471c0,.70109-.24385,1.27009-.54432,1.27009s-.54433-.569-.54433-1.27009 .24386-1.2701.54433-1.2701 .54432.56901.54432,1.2701z" fill="#e9e2ea"/>
  <path transform="translate(50.35 -1552.3)" d="m447.62 851.78c0 0.9014-0.67061 1.633-1.4969 1.633s-1.4969-0.73158-1.4969-1.633 0.67061-1.633 1.4969-1.633 1.4969 0.73158 1.4969 1.633z" fill="#291f2a"/>
  <path transform="translate(51.348 -1551.6)" d="m446.34672,851.32471c0,.70109-.24385,1.27009-.54432,1.27009s-.54433-.569-.54433-1.27009 .24386-1.2701.54433-1.2701 .54432.56901.54432,1.2701z" fill="#e9e2ea"/>
  <path transform="translate(53.616 -1558.4)" d="m447.62 851.78c0 0.9014-0.67061 1.633-1.4969 1.633s-1.4969-0.73158-1.4969-1.633 0.67061-1.633 1.4969-1.633 1.4969 0.73158 1.4969 1.633z" fill="#291f2a"/>
  <path transform="translate(54.614 -1557.8)" d="m446.34672,851.32471c0,.70109-.24385,1.27009-.54432,1.27009s-.54433-.569-.54433-1.27009 .24386-1.2701.54433-1.2701 .54432.56901.54432,1.2701z" fill="#e9e2ea"/>
  <path transform="translate(56.156 -1563.9)" d="m447.62 851.78c0 0.9014-0.67061 1.633-1.4969 1.633s-1.4969-0.73158-1.4969-1.633 0.67061-1.633 1.4969-1.633 1.4969 0.73158 1.4969 1.633z" fill="#291f2a"/>
  <path transform="translate(57.154 -1563.2)" d="m446.34672,851.32471c0,.70109-.24385,1.27009-.54432,1.27009s-.54433-.569-.54433-1.27009 .24386-1.2701.54433-1.2701 .54432.56901.54432,1.2701z" fill="#e9e2ea"/>
  <path transform="translate(61.237 -1556.1)" d="m447.62 851.78c0 0.9014-0.67061 1.633-1.4969 1.633s-1.4969-0.73158-1.4969-1.633 0.67061-1.633 1.4969-1.633 1.4969 0.73158 1.4969 1.633z" fill="#291f2a"/>
  <path transform="translate(62.235 -1555.4)" d="m446.34672,851.32471c0,.70109-.24385,1.27009-.54432,1.27009s-.54433-.569-.54433-1.27009 .24386-1.2701.54433-1.2701 .54432.56901.54432,1.2701z" fill="#e9e2ea"/>
  <path transform="translate(64.321 -1561.3)" d="m447.62 851.78c0 0.9014-0.67061 1.633-1.4969 1.633s-1.4969-0.73158-1.4969-1.633 0.67061-1.633 1.4969-1.633 1.4969 0.73158 1.4969 1.633z" fill="#291f2a"/>
  <path transform="translate(65.319 -1560.7)" d="m446.34672,851.32471c0,.70109-.24385,1.27009-.54432,1.27009s-.54433-.569-.54433-1.27009 .24386-1.2701.54433-1.2701 .54432.56901.54432,1.2701z" fill="#e9e2ea"/>
  <path transform="translate(69.039 -1565.7)" d="m447.62 851.78c0 0.9014-0.67061 1.633-1.4969 1.633s-1.4969-0.73158-1.4969-1.633 0.67061-1.633 1.4969-1.633 1.4969 0.73158 1.4969 1.633z" fill="#291f2a"/>
  <path transform="translate(70.037 -1565)" d="m446.34672,851.32471c0,.70109-.24385,1.27009-.54432,1.27009s-.54433-.569-.54433-1.27009 .24386-1.2701.54433-1.2701 .54432.56901.54432,1.2701z" fill="#e9e2ea"/>
  <path transform="translate(68.857 -1551.3)" d="m447.62 851.78c0 0.9014-0.67061 1.633-1.4969 1.633s-1.4969-0.73158-1.4969-1.633 0.67061-1.633 1.4969-1.633 1.4969 0.73158 1.4969 1.633z" fill="#291f2a"/>
  <path transform="translate(69.855 -1550.7)" d="m446.34672,851.32471c0,.70109-.24385,1.27009-.54432,1.27009s-.54433-.569-.54433-1.27009 .24386-1.2701.54433-1.2701 .54432.56901.54432,1.2701z" fill="#e9e2ea"/>
  <path transform="translate(73.212 -1555.5)" d="m447.62 851.78c0 0.9014-0.67061 1.633-1.4969 1.633s-1.4969-0.73158-1.4969-1.633 0.67061-1.633 1.4969-1.633 1.4969 0.73158 1.4969 1.633z" fill="#291f2a"/>
  <path transform="translate(74.21 -1554.9)" d="m446.34672,851.32471c0,.70109-.24385,1.27009-.54432,1.27009s-.54433-.569-.54433-1.27009 .24386-1.2701.54433-1.2701 .54432.56901.54432,1.2701z" fill="#e9e2ea"/>
  <path transform="translate(77.385 -1558.6)" d="m447.62 851.78c0 0.9014-0.67061 1.633-1.4969 1.633s-1.4969-0.73158-1.4969-1.633 0.67061-1.633 1.4969-1.633 1.4969 0.73158 1.4969 1.633z" fill="#291f2a"/>
  <path transform="translate(78.383 -1558)" d="m446.34672,851.32471c0,.70109-.24385,1.27009-.54432,1.27009s-.54433-.569-.54433-1.27009 .24386-1.2701.54433-1.2701 .54432.56901.54432,1.2701z" fill="#e9e2ea"/>
  <path transform="translate(11.431 -1517.4)" d="m447.62 851.78c0 0.9014-0.67061 1.633-1.4969 1.633s-1.4969-0.73158-1.4969-1.633 0.67061-1.633 1.4969-1.633 1.4969 0.73158 1.4969 1.633z" fill="#291f2a"/>
  <path transform="translate(12.429 -1516.8)" d="m446.34672,851.32471c0,.70109-.24385,1.27009-.54432,1.27009s-.54433-.569-.54433-1.27009 .24386-1.2701.54433-1.2701 .54432.56901.54432,1.2701z" fill="#e9e2ea"/>
  <path transform="translate(4.2639 -1514.2)" d="m447.62 851.78c0 0.9014-0.67061 1.633-1.4969 1.633s-1.4969-0.73158-1.4969-1.633 0.67061-1.633 1.4969-1.633 1.4969 0.73158 1.4969 1.633z" fill="#291f2a"/>
  <path transform="translate(5.2618 -1513.6)" d="m446.34672,851.32471c0,.70109-.24385,1.27009-.54432,1.27009s-.54433-.569-.54433-1.27009 .24386-1.2701.54433-1.2701 .54432.56901.54432,1.2701z" fill="#e9e2ea"/>
  <path transform="translate(7.167 -1508.6)" d="m447.62 851.78c0 0.9014-0.67061 1.633-1.4969 1.633s-1.4969-0.73158-1.4969-1.633 0.67061-1.633 1.4969-1.633 1.4969 0.73158 1.4969 1.633z" fill="#291f2a"/>
  <path transform="translate(8.1649 -1508)" d="m446.34672,851.32471c0,.70109-.24385,1.27009-.54432,1.27009s-.54433-.569-.54433-1.27009 .24386-1.2701.54433-1.2701 .54432.56901.54432,1.2701z" fill="#e9e2ea"/>
  <path transform="translate(13.34 -1503.5)" d="m447.62 851.78c0 0.9014-0.67061 1.633-1.4969 1.633s-1.4969-0.73158-1.4969-1.633 0.67061-1.633 1.4969-1.633 1.4969 0.73158 1.4969 1.633z" fill="#291f2a"/>
  <path transform="translate(14.338 -1502.9)" d="m446.34672,851.32471c0,.70109-.24385,1.27009-.54432,1.27009s-.54433-.569-.54433-1.27009 .24386-1.2701.54433-1.2701 .54432.56901.54432,1.2701z" fill="#e9e2ea"/>
  <path transform="translate(-.36288 -1500.5)" d="m447.62 851.78c0 0.9014-0.67061 1.633-1.4969 1.633s-1.4969-0.73158-1.4969-1.633 0.67061-1.633 1.4969-1.633 1.4969 0.73158 1.4969 1.633z" fill="#291f2a"/>
  <path transform="translate(.63505 -1499.9)" d="m446.34672,851.32471c0,.70109-.24385,1.27009-.54432,1.27009s-.54433-.569-.54433-1.27009 .24386-1.2701.54433-1.2701 .54432.56901.54432,1.2701z" fill="#e9e2ea"/>
  <path transform="translate(4.0824 -1494.9)" d="m447.62 851.78c0 0.9014-0.67061 1.633-1.4969 1.633s-1.4969-0.73158-1.4969-1.633 0.67061-1.633 1.4969-1.633 1.4969 0.73158 1.4969 1.633z" fill="#291f2a"/>
  <path transform="translate(5.0804 -1494.3)" d="m446.34672,851.32471c0,.70109-.24385,1.27009-.54432,1.27009s-.54433-.569-.54433-1.27009 .24386-1.2701.54433-1.2701 .54432.56901.54432,1.2701z" fill="#e9e2ea"/>
  <path transform="translate(8.0742 -1491.6)" d="m447.62 851.78c0 0.9014-0.67061 1.633-1.4969 1.633s-1.4969-0.73158-1.4969-1.633 0.67061-1.633 1.4969-1.633 1.4969 0.73158 1.4969 1.633z" fill="#291f2a"/>
  <path transform="translate(9.0721 -1490.9)" d="m446.34672,851.32471c0,.70109-.24385,1.27009-.54432,1.27009s-.54433-.569-.54433-1.27009 .24386-1.2701.54433-1.2701 .54432.56901.54432,1.2701z" fill="#e9e2ea"/>
  <path transform="translate(-2.1773 -1486)" d="m447.62 851.78c0 0.9014-0.67061 1.633-1.4969 1.633s-1.4969-0.73158-1.4969-1.633 0.67061-1.633 1.4969-1.633 1.4969 0.73158 1.4969 1.633z" fill="#291f2a"/>
  <path transform="translate(-1.1794 -1485.4)" d="m446.34672,851.32471c0,.70109-.24385,1.27009-.54432,1.27009s-.54433-.569-.54433-1.27009 .24386-1.2701.54433-1.2701 .54432.56901.54432,1.2701z" fill="#e9e2ea"/>
  <path transform="translate(2.1773 -1481.8)" d="m447.62 851.78c0 0.9014-0.67061 1.633-1.4969 1.633s-1.4969-0.73158-1.4969-1.633 0.67061-1.633 1.4969-1.633 1.4969 0.73158 1.4969 1.633z" fill="#291f2a"/>
  <path transform="translate(3.1752 -1481.1)" d="m446.34672,851.32471c0,.70109-.24385,1.27009-.54432,1.27009s-.54433-.569-.54433-1.27009 .24386-1.2701.54433-1.2701 .54432.56901.54432,1.2701z" fill="#e9e2ea"/>
  <path transform="translate(7.5298 -1478.9)" d="m447.62 851.78c0 0.9014-0.67061 1.633-1.4969 1.633s-1.4969-0.73158-1.4969-1.633 0.67061-1.633 1.4969-1.633 1.4969 0.73158 1.4969 1.633z" fill="#291f2a"/>
  <path transform="translate(8.5278 -1478.2)" d="m446.34672,851.32471c0,.70109-.24385,1.27009-.54432,1.27009s-.54433-.569-.54433-1.27009 .24386-1.2701.54433-1.2701 .54432.56901.54432,1.2701z" fill="#e9e2ea"/>
  <path transform="translate(2.0866 -1471)" d="m447.62 851.78c0 0.9014-0.67061 1.633-1.4969 1.633s-1.4969-0.73158-1.4969-1.633 0.67061-1.633 1.4969-1.633 1.4969 0.73158 1.4969 1.633z" fill="#291f2a"/>
  <path transform="translate(3.0845 -1470.3)" d="m446.34672,851.32471c0,.70109-.24385,1.27009-.54432,1.27009s-.54433-.569-.54433-1.27009 .24386-1.2701.54433-1.2701 .54432.56901.54432,1.2701z" fill="#e9e2ea"/>
  <path transform="translate(7.5298 -1468.6)" d="m447.62 851.78c0 0.9014-0.67061 1.633-1.4969 1.633s-1.4969-0.73158-1.4969-1.633 0.67061-1.633 1.4969-1.633 1.4969 0.73158 1.4969 1.633z" fill="#291f2a"/>
  <path transform="translate(8.5278 -1468)" d="m446.34672,851.32471c0,.70109-.24385,1.27009-.54432,1.27009s-.54433-.569-.54433-1.27009 .24386-1.2701.54433-1.2701 .54432.56901.54432,1.2701z" fill="#e9e2ea"/>
  <path transform="translate(18.87 -1435.8)" d="m447.62 851.78c0 0.9014-0.67061 1.633-1.4969 1.633s-1.4969-0.73158-1.4969-1.633 0.67061-1.633 1.4969-1.633 1.4969 0.73158 1.4969 1.633z" fill="#291f2a"/>
  <path transform="translate(19.868 -1435.1)" d="m446.34672,851.32471c0,.70109-.24385,1.27009-.54432,1.27009s-.54433-.569-.54433-1.27009 .24386-1.2701.54433-1.2701 .54432.56901.54432,1.2701z" fill="#e9e2ea"/>
  <path transform="translate(25.039 -1439.1)" d="m447.62 851.78c0 0.9014-0.67061 1.633-1.4969 1.633s-1.4969-0.73158-1.4969-1.633 0.67061-1.633 1.4969-1.633 1.4969 0.73158 1.4969 1.633z" fill="#291f2a"/>
  <path transform="translate(26.037 -1438.5)" d="m446.34672,851.32471c0,.70109-.24385,1.27009-.54432,1.27009s-.54433-.569-.54433-1.27009 .24386-1.2701.54433-1.2701 .54432.56901.54432,1.2701z" fill="#e9e2ea"/>
  <path transform="translate(30.029 -1441.8)" d="m447.62 851.78c0 0.9014-0.67061 1.633-1.4969 1.633s-1.4969-0.73158-1.4969-1.633 0.67061-1.633 1.4969-1.633 1.4969 0.73158 1.4969 1.633z" fill="#291f2a"/>
  <path transform="translate(31.027 -1441.2)" d="m446.34672,851.32471c0,.70109-.24385,1.27009-.54432,1.27009s-.54433-.569-.54433-1.27009 .24386-1.2701.54433-1.2701 .54432.56901.54432,1.2701z" fill="#e9e2ea"/>
  <path transform="translate(28.396 -1427.2)" d="m447.62 851.78c0 0.9014-0.67061 1.633-1.4969 1.633s-1.4969-0.73158-1.4969-1.633 0.67061-1.633 1.4969-1.633 1.4969 0.73158 1.4969 1.633z" fill="#291f2a"/>
  <path transform="translate(29.394 -1426.5)" d="m446.34672,851.32471c0,.70109-.24385,1.27009-.54432,1.27009s-.54433-.569-.54433-1.27009 .24386-1.2701.54433-1.2701 .54432.56901.54432,1.2701z" fill="#e9e2ea"/>
  <path transform="translate(33.385 -1431.1)" d="m447.62 851.78c0 0.9014-0.67061 1.633-1.4969 1.633s-1.4969-0.73158-1.4969-1.633 0.67061-1.633 1.4969-1.633 1.4969 0.73158 1.4969 1.633z" fill="#291f2a"/>
  <path transform="translate(34.383 -1430.5)" d="m446.34672,851.32471c0,.70109-.24385,1.27009-.54432,1.27009s-.54433-.569-.54433-1.27009 .24386-1.2701.54433-1.2701 .54432.56901.54432,1.2701z" fill="#e9e2ea"/>
  <path transform="translate(38.012 -1435.7)" d="m447.62 851.78c0 0.9014-0.67061 1.633-1.4969 1.633s-1.4969-0.73158-1.4969-1.633 0.67061-1.633 1.4969-1.633 1.4969 0.73158 1.4969 1.633z" fill="#291f2a"/>
  <path transform="translate(39.01 -1435)" d="m446.34672,851.32471c0,.70109-.24385,1.27009-.54432,1.27009s-.54433-.569-.54433-1.27009 .24386-1.2701.54433-1.2701 .54432.56901.54432,1.2701z" fill="#e9e2ea"/>
  <path transform="translate(38.284 -1421.3)" d="m447.62 851.78c0 0.9014-0.67061 1.633-1.4969 1.633s-1.4969-0.73158-1.4969-1.633 0.67061-1.633 1.4969-1.633 1.4969 0.73158 1.4969 1.633z" fill="#291f2a"/>
  <path transform="translate(39.282 -1420.7)" d="m446.34672,851.32471c0,.70109-.24385,1.27009-.54432,1.27009s-.54433-.569-.54433-1.27009 .24386-1.2701.54433-1.2701 .54432.56901.54432,1.2701z" fill="#e9e2ea"/>
  <path transform="translate(43.546 -1426.2)" d="m447.62 851.78c0 0.9014-0.67061 1.633-1.4969 1.633s-1.4969-0.73158-1.4969-1.633 0.67061-1.633 1.4969-1.633 1.4969 0.73158 1.4969 1.633z" fill="#291f2a"/>
  <path transform="translate(44.544 -1425.5)" d="m446.34672,851.32471c0,.70109-.24385,1.27009-.54432,1.27009s-.54433-.569-.54433-1.27009 .24386-1.2701.54433-1.2701 .54432.56901.54432,1.2701z" fill="#e9e2ea"/>
  <path transform="translate(47.266 -1432.1)" d="m447.62 851.78c0 0.9014-0.67061 1.633-1.4969 1.633s-1.4969-0.73158-1.4969-1.633 0.67061-1.633 1.4969-1.633 1.4969 0.73158 1.4969 1.633z" fill="#291f2a"/>
  <path transform="translate(48.264 -1431.4)" d="m446.34672,851.32471c0,.70109-.24385,1.27009-.54432,1.27009s-.54433-.569-.54433-1.27009 .24386-1.2701.54433-1.2701 .54432.56901.54432,1.2701z" fill="#e9e2ea"/>
  <path transform="translate(50.622 -1423.4)" d="m447.62 851.78c0 0.9014-0.67061 1.633-1.4969 1.633s-1.4969-0.73158-1.4969-1.633 0.67061-1.633 1.4969-1.633 1.4969 0.73158 1.4969 1.633z" fill="#291f2a"/>
  <path transform="translate(51.62 -1422.8)" d="m446.34672,851.32471c0,.70109-.24385,1.27009-.54432,1.27009s-.54433-.569-.54433-1.27009 .24386-1.2701.54433-1.2701 .54432.56901.54432,1.2701z" fill="#e9e2ea"/>
  <path transform="translate(54.16 -1428.8)" d="m447.62 851.78c0 0.9014-0.67061 1.633-1.4969 1.633s-1.4969-0.73158-1.4969-1.633 0.67061-1.633 1.4969-1.633 1.4969 0.73158 1.4969 1.633z" fill="#291f2a"/>
  <path transform="translate(55.158 -1428.1)" d="m446.34672,851.32471c0,.70109-.24385,1.27009-.54432,1.27009s-.54433-.569-.54433-1.27009 .24386-1.2701.54433-1.2701 .54432.56901.54432,1.2701z" fill="#e9e2ea"/>
  <path transform="translate(56.338 -1435.3)" d="m447.62 851.78c0 0.9014-0.67061 1.633-1.4969 1.633s-1.4969-0.73158-1.4969-1.633 0.67061-1.633 1.4969-1.633 1.4969 0.73158 1.4969 1.633z" fill="#291f2a"/>
  <path transform="translate(57.336 -1434.7)" d="m446.34672,851.32471c0,.70109-.24385,1.27009-.54432,1.27009s-.54433-.569-.54433-1.27009 .24386-1.2701.54433-1.2701 .54432.56901.54432,1.2701z" fill="#e9e2ea"/>
  <path transform="translate(60.783 -1422.1)" d="m447.62 851.78c0 0.9014-0.67061 1.633-1.4969 1.633s-1.4969-0.73158-1.4969-1.633 0.67061-1.633 1.4969-1.633 1.4969 0.73158 1.4969 1.633z" fill="#291f2a"/>
  <path transform="translate(61.781 -1421.4)" d="m446.34672,851.32471c0,.70109-.24385,1.27009-.54432,1.27009s-.54433-.569-.54433-1.27009 .24386-1.2701.54433-1.2701 .54432.56901.54432,1.2701z" fill="#e9e2ea"/>
  <path transform="translate(63.686 -1429.2)" d="m447.62 851.78c0 0.9014-0.67061 1.633-1.4969 1.633s-1.4969-0.73158-1.4969-1.633 0.67061-1.633 1.4969-1.633 1.4969 0.73158 1.4969 1.633z" fill="#291f2a"/>
  <path transform="translate(64.684 -1428.6)" d="m446.34672,851.32471c0,.70109-.24385,1.27009-.54432,1.27009s-.54433-.569-.54433-1.27009 .24386-1.2701.54433-1.2701 .54432.56901.54432,1.2701z" fill="#e9e2ea"/>
  <path d="m491.89-694.4 7.6206 10.161 18.144-4.1732 0.54432 9.6164 6.8948-12.701s-5.0804-5.4432-15.967-5.4432-16.874 2.5402-17.237 2.5402z" fill="#432f38"/>
  <path d="m551.95-697.3s3.266-0.90721 5.8061 1.9959 5.8061 15.423 5.8061 15.423l1.633 32.115-20.684-5.4432-0.54432-23.587 7.9834-20.503z" fill="#432f38"/>
  <path d="m554.3-685.33-7.0762 5.9876 0.54433 26.309 21.047 5.8061-1.4515-35.2-8.8906 1.633-4.1732-4.536z" fill="#291f27"/>
  <path d="m549.41-675.89 2.7216 0.54433s8.3463-3.266 10.705-5.0804 5.6247-3.8103 5.6247-3.8103l-7.0762-0.72577s-3.4474 4.7175-5.6247 6.3505-6.5319 3.0845-6.3505 2.7216z" fill="#463548"/>
  <path d="m558.11-667.91 9.0721 0.54433 3.4474 11.794-5.9876 5.9876-9.7978-1.633 3.266-16.693z" fill="#493c50"/>
  <path d="m551.4-676.25-0.18144 7.802 9.6164 0.18144s5.9876 1.633 5.6247 7.0762-1.9959 10.161-5.6247 10.524-6.8948 0.36289-6.8948 0.36289l21.954 4.8989s1.0886-15.06-1.2701-22.862-3.0845-13.064-4.536-14.878-3.8103-3.4474-5.6247-0.36288-4.7175 4.7175-8.3463 5.9876-4.7175 1.9959-4.7175 1.2701z" fill="#735f74"/>
  <path d="m573.72-619.28s-4.7175 16.874-5.9876 18.326-3.8103 2.5402-4.536 0.72577-14.515-10.342-14.515-10.342l1.2701-6.169 12.519 0.54433 1.633-3.266 9.6164 0.18144z" fill="#735f74"/>
  <path d="m536.89-614.38-3.8103 4.3546 3.8103 29.212 6.7133-7.9834-1.8144-5.6247-3.0845-0.72577-1.4515-9.435 3.4474-1.2701-3.8103-8.5278z" fill="#524853"/>
  <path d="m541.6-618.74h28.668s-8.3463 19.959-9.435 23.043-10.161 9.7979-10.161 9.7979l-4.1732-0.36289s-3.4474-0.72576-4.3546-3.8103-4.7175-9.0721-3.9917-11.431 3.6288-16.874 3.4474-17.237z" fill="#150b13"/>
  <path d="m544.51-620.37s-3.9917 13.971-1.633 17.418 3.6288 4.3546 3.6288 4.3546l-2.5402 6.3505 7.2577-1.9959-2.1773 4.7175s5.9876 0.90721 7.2577-1.2701 9.7979-13.608 9.7979-13.608h-18.326l-0.90721-15.785-2.3587-0.18144z" fill="#403543"/>
  <path d="m1105.8-842.69c-6.1584 2.3094-12.83 9.2375-15.396 13.856s-16.166 56.195-15.139 64.663 4.3621 45.931 7.6979 53.885 10.264 18.218 13.6 19.245 5.6451 0.76979 9.4941-3.5924 16.166-14.626 20.528-30.535 7.1848-44.135 4.6188-57.478-10.264-42.339-14.37-48.754-5.9017-11.034-7.6979-10.777-3.3357-0.70565-3.3357-0.5132z" fill="url(#f)"/>
  <path d="m1151.1-743.3-5.9876 1.9959s-1.5482 19.541-6.2597 30.21c-4.0812 9.2416-6.804 14.425-11.068 18.416-4.1887 3.9213-6.4412 6.169-6.4412 6.169l0.5443 5.0804s12.338-8.2556 17.781-21.138 8.7092-20.866 9.9793-29.212 1.0886-11.34 1.4515-11.522z" fill="#3f2426"/>
  <path d="m1091.6-693.22s1.7237 4.6268 6.9855 8.3463 9.6164 4.9896 9.6164 4.9896l-0.4536-4.8989s-9.1628-1.1794-16.148-8.437z" fill="#3f2426"/>
  <g transform="translate(0,-1500)">
   <path d="m1090.3 679.31c-3.1821 0-4.4162 4.7424-7.2038 7.2733-6.075 13.746-5.6132 27.163-5.6132 46.238 0 21.057-0.4379 37.365 6.8121 51.646-2.7454 1.5303 3.4943 5.9674 6.0049 5.9674 13.456 0 24.375-24.897 24.375-55.562s-10.919-55.562-24.375-55.562z" fill="url(#e)"/>
   <path transform="matrix(.60359 0 0 .75448 815.88 138.54)" d="m447.62 851.78c0 0.9014-0.67061 1.633-1.4969 1.633s-1.4969-0.73158-1.4969-1.633 0.67061-1.633 1.4969-1.633 1.4969 0.73158 1.4969 1.633z" fill="#291f2a"/>
   <path transform="matrix(.60359 0 0 .75448 816.48 139.02)" d="m446.34672,851.32471c0,.70109-.24385,1.27009-.54432,1.27009s-.54433-.569-.54433-1.27009 .24386-1.2701.54433-1.2701 .54432.56901.54432,1.2701z" fill="#e9e2ea"/>
   <path transform="matrix(.60359 0 0 .75448 818.96 140.17)" d="m447.62 851.78c0 0.9014-0.67061 1.633-1.4969 1.633s-1.4969-0.73158-1.4969-1.633 0.67061-1.633 1.4969-1.633 1.4969 0.73158 1.4969 1.633z" fill="#291f2a"/>
   <path transform="matrix(.60359 0 0 .75448 819.57 140.65)" d="m446.34672,851.32471c0,.70109-.24385,1.27009-.54432,1.27009s-.54433-.569-.54433-1.27009 .24386-1.2701.54433-1.2701 .54432.56901.54432,1.2701z" fill="#e9e2ea"/>
   <path transform="matrix(.60359 0 0 .75448 821.14 137.09)" d="m447.62 851.78c0 0.9014-0.67061 1.633-1.4969 1.633s-1.4969-0.73158-1.4969-1.633 0.67061-1.633 1.4969-1.633 1.4969 0.73158 1.4969 1.633z" fill="#291f2a"/>
   <path transform="matrix(.60359 0 0 .75448 821.74 137.57)" d="m446.34672,851.32471c0,.70109-.24385,1.27009-.54432,1.27009s-.54433-.569-.54433-1.27009 .24386-1.2701.54433-1.2701 .54432.56901.54432,1.2701z" fill="#e9e2ea"/>
   <path transform="matrix(.60359 0 0 .75448 822.23 140.9)" d="m447.62 851.78c0 0.9014-0.67061 1.633-1.4969 1.633s-1.4969-0.73158-1.4969-1.633 0.67061-1.633 1.4969-1.633 1.4969 0.73158 1.4969 1.633z" fill="#291f2a"/>
   <path transform="matrix(.60359 0 0 .75448 822.83 141.38)" d="m446.34672,851.32471c0,.70109-.24385,1.27009-.54432,1.27009s-.54433-.569-.54433-1.27009 .24386-1.2701.54433-1.2701 .54432.56901.54432,1.2701z" fill="#e9e2ea"/>
   <path transform="matrix(.60359 0 0 .75448 825.31 137.63)" d="m447.62 851.78c0 0.9014-0.67061 1.633-1.4969 1.633s-1.4969-0.73158-1.4969-1.633 0.67061-1.633 1.4969-1.633 1.4969 0.73158 1.4969 1.633z" fill="#291f2a"/>
   <path transform="matrix(.60359 0 0 .75448 825.92 138.11)" d="m446.34672,851.32471c0,.70109-.24385,1.27009-.54432,1.27009s-.54433-.569-.54433-1.27009 .24386-1.2701.54433-1.2701 .54432.56901.54432,1.2701z" fill="#e9e2ea"/>
   <path transform="matrix(.60359 0 0 .75448 829.12 132.92)" d="m447.62 851.78c0 0.9014-0.67061 1.633-1.4969 1.633s-1.4969-0.73158-1.4969-1.633 0.67061-1.633 1.4969-1.633 1.4969 0.73158 1.4969 1.633z" fill="#291f2a"/>
   <path transform="matrix(.60359 0 0 .75448 829.73 133.4)" d="m446.34672,851.32471c0,.70109-.24385,1.27009-.54432,1.27009s-.54433-.569-.54433-1.27009 .24386-1.2701.54433-1.2701 .54432.56901.54432,1.2701z" fill="#e9e2ea"/>
   <path transform="matrix(.60359 0 0 .75448 831.3 48.728)" d="m447.62 851.78c0 0.9014-0.67061 1.633-1.4969 1.633s-1.4969-0.73158-1.4969-1.633 0.67061-1.633 1.4969-1.633 1.4969 0.73158 1.4969 1.633z" fill="#291f2a"/>
   <path transform="matrix(.60359 0 0 .75448 831.9 49.207)" d="m446.34672,851.32471c0,.70109-.24385,1.27009-.54432,1.27009s-.54433-.569-.54433-1.27009 .24386-1.2701.54433-1.2701 .54432.56901.54432,1.2701z" fill="#e9e2ea"/>
   <path transform="matrix(.60359 0 0 .75448 828.76 44.192)" d="m447.62 851.78c0 0.9014-0.67061 1.633-1.4969 1.633s-1.4969-0.73158-1.4969-1.633 0.67061-1.633 1.4969-1.633 1.4969 0.73158 1.4969 1.633z" fill="#291f2a"/>
   <path transform="matrix(.60359 0 0 .75448 829.36 44.671)" d="m446.34672,851.32471c0,.70109-.24385,1.27009-.54432,1.27009s-.54433-.569-.54433-1.27009 .24386-1.2701.54433-1.2701 .54432.56901.54432,1.2701z" fill="#e9e2ea"/>
   <path transform="matrix(.60359 0 0 .75448 833.66 54.534)" d="m447.62 851.78c0 0.9014-0.67061 1.633-1.4969 1.633s-1.4969-0.73158-1.4969-1.633 0.67061-1.633 1.4969-1.633 1.4969 0.73158 1.4969 1.633z" fill="#291f2a"/>
   <path transform="matrix(.60359 0 0 .75448 834.26 55.013)" d="m446.34672,851.32471c0,.70109-.24385,1.27009-.54432,1.27009s-.54433-.569-.54433-1.27009 .24386-1.2701.54433-1.2701 .54432.56901.54432,1.2701z" fill="#e9e2ea"/>
  </g>
  <path d="m1150.3-757.15-33.564-18.076s6.4149-25.66 8.9809-33.358 10.264-28.354 10.264-28.354l-4.4905-5.3885s-20.271 52.218-21.682 53.501-4.2338 1.7962-4.6187 0.38489-14.754-43.237-14.754-43.237l-6.1583 13.985s8.596 32.973 9.879 36.18 5.3885 11.675 5.3885 11.675l-20.656 33.871 1.1547 12.06 20.143-25.275 5.2603-1.4113 10.52 69.666 6.03-2.4377s-3.0792-19.63-4.7471-35.282-2.3093-34.897-2.3093-34.897l37.078 6.03-1.7184-9.6366z" fill="#c3c1cf"/>
  <path d="m1153.2-776.77-5.4432 0.54433-0.1815 4.3546-13.971 0.54433-0.5443 5.0804 12.157 2.5402 5.4432 7.2577-18.507-9.0721-0.5443 1.4515 11.068 6.169-0.7258 9.2535 9.435 1.9959s2.3588-7.802 1.8144-12.701 0-17.056 0-17.418z" fill="#100e0f"/>
  <path d="m1088.2-780.7-2.3093 17.449-1.7962 7.1847-7.9545 15.396 1.5395 5.132 22.324-30.792-14.883-53.372-6.9282 23.607 6.9282-5.6451 3.5923 22.067-0.5132-1.0264z" fill="#fefdfd"/>
  <path d="m1082.3-812.26s7.6979 24.89 6.9281 28.996-1.283 3.0792-1.283 4.3622 1.0264-3.0792 2.8226-2.0528 4.1056 1.283 4.1056 1.283l-9.7507-34.384-2.8226 1.7962z" fill="#2d1b19"/>
  <path d="m1089.9-777.5-1.0886 12.519s2.5402-2.1773 5.8061-2.9031 5.8061-0.36288 5.8061-0.36288l-10.524-9.2535z" fill="#2d1b19"/>
  <path d="m1102.1-771.33-1.0886 7.4391 7.9834-0.54432-2.7216-3.266 7.0762-0.72577 2.1773-2.5402-6.8948-10.524-1.9958 9.435-4.5361 0.72577z" fill="#2d1b19"/>
  <path d="m1112.1-843.31s0.7698 3.3358-0.7698 5.132-2.0528 4.1056-2.0528 4.1056l2.8226 3.5924 5.3885 0.5132-4.6187 17.192-4.1056 16.166-2.0527-2.8226-5.9018 2.566 6.1583 12.06 23.864-56.451-6.4149 2.8226-12.317-4.8754z" fill="#fefdfd"/>
  <path d="m1112.4-812.7s-7.9834 12.338-9.0721 13.608 4.3546-0.54432 4.3546-0.54432l0.9072 4.7175 4.899-17.6-1.0887-0.18144z" fill="#2d1b19"/>
  <path d="m1089.2-732.86-3.0845 4.1732s10.886-1.0886 11.249-2.9031-4.3546 0.36289-8.1648-1.2701z" fill="#2d1b19"/>
  <path d="m1094.1-737.76-0.7258 1.2701 6.169 6.8948 5.0804 24.676-1.0886-28.123-2.1773 1.9959-7.2577-6.7134z" fill="#2d1b19"/>
  <path d="m1087.2-763.17 0.9072 6.169-10.342 16.874 0.9072 1.0886 11.431-18.507-2.9031-5.6247z" fill="#2d1b19"/>
  <path d="m1125.8-836.65 5.9876-5.0804-22.68 55.884-0.5444-1.4515 19.233-48.808-1.9959-0.54432z" fill="#2d1b19"/>
  <path d="m1117-773.69 29.756 16.511-1.8144 0.90721-28.668-15.967 0.7257-1.4515z" fill="#2d1b19"/>
  <path d="m1114.7-752.99 37.463 7.6979-0.5132 3.3358-6.6715 1.283-13.086-1.0264 4.8753-3.3358-22.324-5.6452 0.2566-2.3094z" fill="#fefdfd"/>
  <path d="m1094.4-739.13 7.9545 8.4677 1.7962-2.0528 2.0528 37.207-6.6716 2.566 1.5396 4.1056s4.3622 4.3622 7.9545 3.5924 4.1056-5.6451 4.1056-5.6451l-8.2111-57.478-1.5396-1.5396-8.9809 10.777z" fill="#fefdfd"/>
  <g transform="translate(0,-1500)">
   <path d="m1104.9 745.28c0 4.0722-1.9255 7.3772-4.298 7.3772s-4.2981-3.305-4.2981-7.3772 1.9256-7.3772 4.2981-7.3772 4.298 3.305 4.298 7.3772z" fill="#808080"/>
   <path transform="matrix(.9273 0 0 1.0645 79.198 -49.697)" d="m1105.3 746.43c0 3.2932-1.6094 5.9659-3.5924 5.9659s-3.5923-2.6727-3.5923-5.9659 1.6093-5.9659 3.5923-5.9659 3.5924 2.6727 3.5924 5.9659z" fill="#d8d7d7"/>
   <path transform="translate(-.36288,-.72577)" d="m1102.8 745.63c0 2.4538-1.0568 4.4453-2.3588 4.4453s-2.3587-1.9915-2.3587-4.4453 1.0567-4.4453 2.3587-4.4453 2.3588 1.9915 2.3588 4.4453z" fill="#eaeaea"/>
   <path transform="translate(-.54433,-.18144)" d="m1104.3 745.18c0 2.6041-0.8941 4.7175-1.9958 4.7175s-1.9959-2.1134-1.9959-4.7175 0.8942-4.7175 1.9959-4.7175 1.9958 2.1134 1.9958 4.7175z" fill="#7f7f7f"/>
  </g>
  <g transform="translate(9.6164 -1487.3)">
   <path d="m1104.9 745.28c0 4.0722-1.9255 7.3772-4.298 7.3772s-4.2981-3.305-4.2981-7.3772 1.9256-7.3772 4.2981-7.3772 4.298 3.305 4.298 7.3772z" fill="#808080"/>
   <path transform="matrix(.9273 0 0 1.0645 79.198 -49.697)" d="m1105.3 746.43c0 3.2932-1.6094 5.9659-3.5924 5.9659s-3.5923-2.6727-3.5923-5.9659 1.6093-5.9659 3.5923-5.9659 3.5924 2.6727 3.5924 5.9659z" fill="#d8d7d7"/>
   <path transform="translate(-.36288,-.72577)" d="m1102.8 745.63c0 2.4538-1.0568 4.4453-2.3588 4.4453s-2.3587-1.9915-2.3587-4.4453 1.0567-4.4453 2.3587-4.4453 2.3588 1.9915 2.3588 4.4453z" fill="#eaeaea"/>
   <path transform="translate(-.54433,-.18144)" d="m1104.3 745.18c0 2.6041-0.8941 4.7175-1.9958 4.7175s-1.9959-2.1134-1.9959-4.7175 0.8942-4.7175 1.9959-4.7175 1.9958 2.1134 1.9958 4.7175z" fill="#7f7f7f"/>
  </g>
  <g transform="translate(18.87 -1506.1)">
   <path d="m1104.9 745.28c0 4.0722-1.9255 7.3772-4.298 7.3772s-4.2981-3.305-4.2981-7.3772 1.9256-7.3772 4.2981-7.3772 4.298 3.305 4.298 7.3772z" fill="#808080"/>
   <path transform="matrix(.9273 0 0 1.0645 79.198 -49.697)" d="m1105.3 746.43c0 3.2932-1.6094 5.9659-3.5924 5.9659s-3.5923-2.6727-3.5923-5.9659 1.6093-5.9659 3.5923-5.9659 3.5924 2.6727 3.5924 5.9659z" fill="#d8d7d7"/>
   <path transform="translate(-.36288,-.72577)" d="m1102.8 745.63c0 2.4538-1.0568 4.4453-2.3588 4.4453s-2.3587-1.9915-2.3587-4.4453 1.0567-4.4453 2.3587-4.4453 2.3588 1.9915 2.3588 4.4453z" fill="#eaeaea"/>
   <path transform="translate(-.54433,-.18144)" d="m1104.3 745.18c0 2.6041-0.8941 4.7175-1.9958 4.7175s-1.9959-2.1134-1.9959-4.7175 0.8942-4.7175 1.9959-4.7175 1.9958 2.1134 1.9958 4.7175z" fill="#7f7f7f"/>
  </g>
  <g transform="translate(13.245 -1528.1)">
   <path d="m1104.9 745.28c0 4.0722-1.9255 7.3772-4.298 7.3772s-4.2981-3.305-4.2981-7.3772 1.9256-7.3772 4.2981-7.3772 4.298 3.305 4.298 7.3772z" fill="#808080"/>
   <path transform="matrix(.9273 0 0 1.0645 79.198 -49.697)" d="m1105.3 746.43c0 3.2932-1.6094 5.9659-3.5924 5.9659s-3.5923-2.6727-3.5923-5.9659 1.6093-5.9659 3.5923-5.9659 3.5924 2.6727 3.5924 5.9659z" fill="#d8d7d7"/>
   <path transform="translate(-.36288,-.72577)" d="m1102.8 745.63c0 2.4538-1.0568 4.4453-2.3588 4.4453s-2.3587-1.9915-2.3587-4.4453 1.0567-4.4453 2.3587-4.4453 2.3588 1.9915 2.3588 4.4453z" fill="#eaeaea"/>
   <path transform="translate(-.54433,-.18144)" d="m1104.3 745.18c0 2.6041-0.8941 4.7175-1.9958 4.7175s-1.9959-2.1134-1.9959-4.7175 0.8942-4.7175 1.9959-4.7175 1.9958 2.1134 1.9958 4.7175z" fill="#7f7f7f"/>
  </g>
  <g transform="translate(1.9959 -1524.7)">
   <path d="m1104.9 745.28c0 4.0722-1.9255 7.3772-4.298 7.3772s-4.2981-3.305-4.2981-7.3772 1.9256-7.3772 4.2981-7.3772 4.298 3.305 4.298 7.3772z" fill="#808080"/>
   <path transform="matrix(.9273 0 0 1.0645 79.198 -49.697)" d="m1105.3 746.43c0 3.2932-1.6094 5.9659-3.5924 5.9659s-3.5923-2.6727-3.5923-5.9659 1.6093-5.9659 3.5923-5.9659 3.5924 2.6727 3.5924 5.9659z" fill="#d8d7d7"/>
   <path transform="translate(-.36288,-.72577)" d="m1102.8 745.63c0 2.4538-1.0568 4.4453-2.3588 4.4453s-2.3587-1.9915-2.3587-4.4453 1.0567-4.4453 2.3587-4.4453 2.3588 1.9915 2.3588 4.4453z" fill="#eaeaea"/>
   <path transform="translate(-.54433,-.18144)" d="m1104.3 745.18c0 2.6041-0.8941 4.7175-1.9958 4.7175s-1.9959-2.1134-1.9959-4.7175 0.8942-4.7175 1.9959-4.7175 1.9958 2.1134 1.9958 4.7175z" fill="#7f7f7f"/>
  </g>
  <path transform="matrix(1.209 0 0 1 -106.39 -1500.4)" d="m510.03 840.89c0 5.4585-2.7231 9.8886-6.0783 9.8886s-6.0783-4.4301-6.0783-9.8886 2.7231-9.8886 6.0783-9.8886 6.0783 4.4301 6.0783 9.8886z" fill="#634c56"/>
  <path transform="matrix(1 0 0 .92857 -26.309 -1433.4)" d="m534.71 835.18c0 4.2066-2.5605 7.6206-5.7154 7.6206s-5.7154-3.414-5.7154-7.6206 2.5605-7.6206 5.7154-7.6206 5.7154 3.414 5.7154 7.6206z" fill="#fff2ff"/>
  <path transform="translate(-27.035 -1492.9)" d="m533.98 834.99c0 2.8044-1.8696 5.0804-4.1732 5.0804s-4.1732-2.276-4.1732-5.0804 1.8696-5.0804 4.1732-5.0804 4.1732 2.276 4.1732 5.0804z" fill="#6f5f6c"/>
  <path transform="translate(-27.216 -1493.5)" d="m532.89 834.99c0 1.6025-1.2193 2.9031-2.7216 2.9031s-2.7216-1.3006-2.7216-2.9031 1.2193-2.9031 2.7216-2.9031 2.7216 1.3006 2.7216 2.9031z" fill="#13140f"/>
  <path transform="translate(-26.49 -1492.2)" d="m532.71 835.36c0 1.6025-1.2599 2.9031-2.8124 2.9031s-2.8123-1.3006-2.8123-2.9031 1.2599-2.9031 2.8123-2.9031 2.8124 1.3006 2.8124 2.9031z" fill="#f5e8f2"/>
  <path transform="matrix(1.2053 .09396 -.07772 .99698 -13.434 -1551.3)" d="m510.03 840.89c0 5.4585-2.7231 9.8886-6.0783 9.8886s-6.0783-4.4301-6.0783-9.8886 2.7231-9.8886 6.0783-9.8886 6.0783 4.4301 6.0783 9.8886z" fill="#634c56"/>
  <path transform="matrix(.99698 .07772 -.07217 .92576 61.207 -1478.4)" d="m534.71 835.18c0 4.2066-2.5605 7.6206-5.7154 7.6206s-5.7154-3.414-5.7154-7.6206 2.5605-7.6206 5.7154-7.6206 5.7154 3.414 5.7154 7.6206z" fill="#fff2ff"/>
  <path transform="matrix(.99698 .07772 -.07772 .99698 65.106 -1537.8)" d="m533.98 834.99c0 2.8044-1.8696 5.0804-4.1732 5.0804s-4.1732-2.276-4.1732-5.0804 1.8696-5.0804 4.1732-5.0804 4.1732 2.276 4.1732 5.0804z" fill="#6f5f6c"/>
  <path transform="matrix(.99698 .07772 -.07772 .99698 64.967 -1538.3)" d="m532.89 834.99c0 1.6025-1.2193 2.9031-2.7216 2.9031s-2.7216-1.3006-2.7216-2.9031 1.2193-2.9031 2.7216-2.9031 2.7216 1.3006 2.7216 2.9031z" fill="#13140f"/>
  <path transform="matrix(.99698 .07772 -.07772 .99698 65.592 -1537)" d="m532.71 835.36c0 1.6025-1.2599 2.9031-2.8124 2.9031s-2.8123-1.3006-2.8123-2.9031 1.2599-2.9031 2.8123-2.9031 2.8124 1.3006 2.8124 2.9031z" fill="#f5e8f2"/>
  <path transform="matrix(.97005 .72151 -.5968 .80239 552.5 -1675.5)" d="m510.03 840.89c0 5.4585-2.7231 9.8886-6.0783 9.8886s-6.0783-4.4301-6.0783-9.8886 2.7231-9.8886 6.0783-9.8886 6.0783 4.4301 6.0783 9.8886z" fill="#634c56"/>
  <path transform="matrix(.80239 .5968 -.55417 .74507 576.83 -1574)" d="m534.71 835.18c0 4.2066-2.5605 7.6206-5.7154 7.6206s-5.7154-3.414-5.7154-7.6206 2.5605-7.6206 5.7154-7.6206 5.7154 3.414 5.7154 7.6206z" fill="#fff2ff"/>
  <path transform="matrix(.80239 .5968 -.5968 .80239 611.74 -1622.2)" d="m533.98 834.99c0 2.8044-1.8696 5.0804-4.1732 5.0804s-4.1732-2.276-4.1732-5.0804 1.8696-5.0804 4.1732-5.0804 4.1732 2.276 4.1732 5.0804z" fill="#6f5f6c"/>
  <path transform="matrix(.80239 .5968 -.5968 .80239 611.92 -1622.7)" d="m532.89 834.99c0 1.6025-1.2193 2.9031-2.7216 2.9031s-2.7216-1.3006-2.7216-2.9031 1.2193-2.9031 2.7216-2.9031 2.7216 1.3006 2.7216 2.9031z" fill="#13140f"/>
  <path transform="matrix(.80239 .5968 -.5968 .80239 611.74 -1621.2)" d="m532.71 835.36c0 1.6025-1.2599 2.9031-2.8124 2.9031s-2.8123-1.3006-2.8123-2.9031 1.2599-2.9031 2.8123-2.9031 2.8124 1.3006 2.8124 2.9031z" fill="#f5e8f2"/>
  <path transform="matrix(1.209 0 0 1 -87.341 -1452.3)" d="m510.03 840.89c0 5.4585-2.7231 9.8886-6.0783 9.8886s-6.0783-4.4301-6.0783-9.8886 2.7231-9.8886 6.0783-9.8886 6.0783 4.4301 6.0783 9.8886z" fill="#634c56"/>
  <path transform="matrix(1 0 0 .92857 -7.2577 -1385.4)" d="m534.71 835.18c0 4.2066-2.5605 7.6206-5.7154 7.6206s-5.7154-3.414-5.7154-7.6206 2.5605-7.6206 5.7154-7.6206 5.7154 3.414 5.7154 7.6206z" fill="#fff2ff"/>
  <path transform="translate(-7.9834 -1444.8)" d="m533.98 834.99c0 2.8044-1.8696 5.0804-4.1732 5.0804s-4.1732-2.276-4.1732-5.0804 1.8696-5.0804 4.1732-5.0804 4.1732 2.276 4.1732 5.0804z" fill="#6f5f6c"/>
  <path transform="translate(-8.1649 -1445.4)" d="m532.89 834.99c0 1.6025-1.2193 2.9031-2.7216 2.9031s-2.7216-1.3006-2.7216-2.9031 1.2193-2.9031 2.7216-2.9031 2.7216 1.3006 2.7216 2.9031z" fill="#13140f"/>
  <path transform="translate(-7.4391 -1444.1)" d="m532.71 835.36c0 1.6025-1.2599 2.9031-2.8124 2.9031s-2.8123-1.3006-2.8123-2.9031 1.2599-2.9031 2.8123-2.9031 2.8124 1.3006 2.8124 2.9031z" fill="#f5e8f2"/>
  <path transform="matrix(1.0189 .6507 -.53823 .8428 437.99 -1661.4)" d="m510.03 840.89c0 5.4585-2.7231 9.8886-6.0783 9.8886s-6.0783-4.4301-6.0783-9.8886 2.7231-9.8886 6.0783-9.8886 6.0783 4.4301 6.0783 9.8886z" fill="#634c56"/>
  <path transform="matrix(.8428 .53823 -.49978 .7826 469.46 -1561.9)" d="m534.71 835.18c0 4.2066-2.5605 7.6206-5.7154 7.6206s-5.7154-3.414-5.7154-7.6206 2.5605-7.6206 5.7154-7.6206 5.7154 3.414 5.7154 7.6206z" fill="#fff2ff"/>
  <path transform="matrix(.8428 .53823 -.53823 .8428 500.86 -1612.5)" d="m533.98 834.99c0 2.8044-1.8696 5.0804-4.1732 5.0804s-4.1732-2.276-4.1732-5.0804 1.8696-5.0804 4.1732-5.0804 4.1732 2.276 4.1732 5.0804z" fill="#6f5f6c"/>
  <path transform="matrix(.8428 .53823 -.53823 .8428 501 -1613)" d="m532.89 834.99c0 1.6025-1.2193 2.9031-2.7216 2.9031s-2.7216-1.3006-2.7216-2.9031 1.2193-2.9031 2.7216-2.9031 2.7216 1.3006 2.7216 2.9031z" fill="#13140f"/>
  <path transform="matrix(.8428 .53823 -.53823 .8428 500.93 -1611.6)" d="m532.71 835.36c0 1.6025-1.2599 2.9031-2.8124 2.9031s-2.8123-1.3006-2.8123-2.9031 1.2599-2.9031 2.8123-2.9031 2.8124 1.3006 2.8124 2.9031z" fill="#f5e8f2"/>
  <g transform="translate(-1608.5 28.126)">
   <path d="m1567.4-778.78-3.5158 10.108 11.646 3.5158-3.9553 7.471 3.0763 1.3184 0.4395 1.5382 9.8881-8.1302h11.426l1.5382-1.3184h7.6907l13.624-7.471-0.4395-4.3947-30.543 1.5382-3.9553 4.8342 1.5382-4.6145-18.458-4.3947z" fill="#fff"/>
   <path d="m1591.3-774.39-8.5697 7.471 12.305-0.87894 1.0987-1.3184h7.9105l12.525-6.5921-25.27 1.3184z" fill="#ff2a2a"/>
   <path d="m1619.7-773.51-12.525 5.9329-9.4487 1.0987-1.3184 1.5382-11.426 0.21974-9.2289 7.0316" fill="none" stroke="#000" stroke-width="1.5"/>
   <path d="m1566.9-778.56-2.417 9.0092 14.722 3.9553 5.2736-8.7894-17.579-4.175z" fill="#8d8d8d"/>
   <path d="m1581.6-766.04-7.0316 5.4934" fill="#b3b3b3" stroke="#000" stroke-width="1.5"/>
   <path d="m1586.7-769.11 4.6145-2.4171 3.0763 1.3184-3.5158 2.1974-4.175-1.0987z" fill="#ffd42a"/>
   <path d="m1602.6-771.02 3.3799-3.9639 3.346 0.0758-2.4424 3.3502-4.2835 0.53794z" fill="#ffd42a"/>
   <path d="m1566.5-772.3-0.6592 2.1974 3.1862 0.32961 0.8789-1.9776-3.4059-0.54934z"/>
   <path d="m1570.9-770.65-0.6592 2.1974 3.1862 0.32961 0.8789-1.9776-3.4059-0.54934z"/>
   <path d="m1576.9-769.22-0.6592 2.1974 3.1862 0.32961 0.8789-1.9776-3.4059-0.54934z"/>
   <path d="m1574.8-772.08-0.6592 2.1974 3.1862 0.32961 0.8789-1.9776-3.4059-0.54934z"/>
   <path d="m1569.9-773.73-0.6592 2.1974 3.1862 0.32961 0.8789-1.9776-3.4059-0.54934z"/>
   <path d="m1567.9-777.14-0.6592 2.1974 3.1862 0.32961 0.8789-1.9776-3.4059-0.54934z"/>
   <path d="m1573.9-775.27-0.6592 2.1974 3.1862 0.32961 0.8789-1.9776-3.4059-0.54934z"/>
   <path d="m1578.4-774.06-0.6592 2.1974 3.1862 0.32961 0.8789-1.9776-3.4059-0.54934z"/>
  </g>
 </g>
</svg>
