<?xml version="1.0" encoding="UTF-8"?>
<svg viewBox="0 0 412.2012 135.25957" xmlns="http://www.w3.org/2000/svg">
 <g transform="translate(-51.525 -395.61)">
  <path d="m249.33 395.61h13.034l201.36 135.26-412.2-0.15887z" fill="#505654"/>
  <path d="m240.19 526.52 4.024-37.98h12.126l-0.10237 37.98z" fill="#e1e3e4"/>
  <path d="m246.98 466.73h9.2925v-19.205h-7.021z" fill="#e1e3e4"/>
  <path d="m250.69 438.64h5.782v-9.912h-4.7495z" fill="#e1e3e4"/>
  <path d="m252.55 423.01 3.9526 0.11826-0.0291-5.5464-3.3331 0.0591z" fill="#e1e3e4"/>
  <path d="m253.38 414.63h3.134l0.0591-3.1931h-2.72z" fill="#e1e3e4"/>
  <path d="m254.11 409.52 2.4072 0.0254v-2.0696h-2.1879z" fill="#e1e3e4"/>
  <path d="m254.47 406.33h2.0354l-0.0254-1.4248h-1.8573z" fill="#e1e3e4"/>
  <path d="m254.78 403.94h1.7046l0.0254-0.99225h-1.6283z" fill="#e1e3e4"/>
  <path d="m254.96 402.25h1.5474v-0.83711h-1.4586z" fill="#e1e3e4"/>
  <path d="m255.1 400.94h1.3952l-0.0127-0.65953h-1.2937z" fill="#e1e3e4"/>
  <path d="m255.25 399.93h1.2683l-0.0127-0.55807h-1.1922z" fill="#e1e3e4"/>
  <path d="m255.36 399.1h1.1288l0.0127-0.46929h-1.1035z" fill="#e1e3e4"/>
  <path d="m255.46 398.37h1.0147v-0.35514h-1.002z" fill="#e1e3e4"/>
  <path d="m255.51 397.8h0.98918l-9e-3 -0.31811h-0.93689z" fill="#e1e3e4"/>
  <path d="m255.57 397.33h0.90639v-0.20916h-0.87153z" fill="#e1e3e4"/>
  <path d="m255.63 396.99h0.82359v-0.15252h-0.79308z" fill="#e1e3e4"/>
  <path d="m255.67 396.72h0.78001l4e-3 -0.10894h-0.77566z" fill="#e1e3e4"/>
  <path d="m255.69 396.52h0.75387l4e-3 -0.10458h-0.74515z" fill="#e1e3e4"/>
 </g>
</svg>
